<svg width="529" height="624" viewBox="0 0 529 624" fill="none" xmlns="http://www.w3.org/2000/svg">
<rect width="500" height="541" transform="translate(29 21)" fill="white"/>
<g filter="url(#filter0_d)">
<rect x="140" y="92" width="298" height="457" rx="16.5" fill="white"/>
<rect x="140.5" y="92.5" width="297" height="456" rx="16" stroke="white"/>
</g>
<rect x="187" y="58" width="204" height="66" rx="33" fill="#8186FF"/>
<path d="M224.094 80.734C224.094 81.2193 223.977 81.6743 223.743 82.099C223.517 82.5237 223.158 82.866 222.664 83.126C222.178 83.386 221.563 83.516 220.818 83.516H219.297V87H217.477V77.926H220.818C221.52 77.926 222.118 78.0473 222.612 78.29C223.106 78.5327 223.474 78.8663 223.717 79.291C223.968 79.7157 224.094 80.1967 224.094 80.734ZM220.74 82.047C221.242 82.047 221.615 81.9343 221.858 81.709C222.1 81.475 222.222 81.15 222.222 80.734C222.222 79.85 221.728 79.408 220.74 79.408H219.297V82.047H220.74ZM227.206 80.916C227.44 80.5347 227.743 80.2357 228.116 80.019C228.497 79.8023 228.93 79.694 229.416 79.694V81.605H228.935C228.363 81.605 227.929 81.7393 227.635 82.008C227.349 82.2767 227.206 82.7447 227.206 83.412V87H225.386V79.798H227.206V80.916ZM233.84 87.117C233.146 87.117 232.522 86.9653 231.968 86.662C231.413 86.35 230.975 85.9123 230.655 85.349C230.343 84.7857 230.187 84.1357 230.187 83.399C230.187 82.6623 230.347 82.0123 230.668 81.449C230.997 80.8857 231.443 80.4523 232.007 80.149C232.57 79.837 233.198 79.681 233.892 79.681C234.585 79.681 235.213 79.837 235.777 80.149C236.34 80.4523 236.782 80.8857 237.103 81.449C237.432 82.0123 237.597 82.6623 237.597 83.399C237.597 84.1357 237.428 84.7857 237.09 85.349C236.76 85.9123 236.31 86.35 235.738 86.662C235.174 86.9653 234.542 87.117 233.84 87.117ZM233.84 85.531C234.169 85.531 234.477 85.453 234.763 85.297C235.057 85.1323 235.291 84.8897 235.465 84.569C235.638 84.2483 235.725 83.8583 235.725 83.399C235.725 82.7143 235.543 82.19 235.179 81.826C234.823 81.4533 234.386 81.267 233.866 81.267C233.346 81.267 232.908 81.4533 232.553 81.826C232.206 82.19 232.033 82.7143 232.033 83.399C232.033 84.0837 232.202 84.6123 232.54 84.985C232.886 85.349 233.32 85.531 233.84 85.531ZM238.464 83.373C238.464 82.645 238.607 81.9993 238.893 81.436C239.187 80.8727 239.586 80.4393 240.089 80.136C240.591 79.8327 241.15 79.681 241.766 79.681C242.234 79.681 242.68 79.785 243.105 79.993C243.529 80.1923 243.867 80.461 244.119 80.799V77.38H245.965V87H244.119V85.934C243.893 86.2893 243.577 86.5753 243.17 86.792C242.762 87.0087 242.29 87.117 241.753 87.117C241.146 87.117 240.591 86.961 240.089 86.649C239.586 86.337 239.187 85.8993 238.893 85.336C238.607 84.764 238.464 84.1097 238.464 83.373ZM244.132 83.399C244.132 82.957 244.045 82.58 243.872 82.268C243.698 81.9473 243.464 81.7047 243.17 81.54C242.875 81.3667 242.559 81.28 242.221 81.28C241.883 81.28 241.571 81.3623 241.285 81.527C240.999 81.6917 240.765 81.9343 240.583 82.255C240.409 82.567 240.323 82.9397 240.323 83.373C240.323 83.8063 240.409 84.1877 240.583 84.517C240.765 84.8377 240.999 85.0847 241.285 85.258C241.579 85.4313 241.891 85.518 242.221 85.518C242.559 85.518 242.875 85.4357 243.17 85.271C243.464 85.0977 243.698 84.855 243.872 84.543C244.045 84.2223 244.132 83.841 244.132 83.399ZM254.541 79.798V87H252.708V86.09C252.474 86.402 252.167 86.649 251.785 86.831C251.413 87.0043 251.005 87.091 250.563 87.091C250 87.091 249.502 86.974 249.068 86.74C248.635 86.4973 248.293 86.1463 248.041 85.687C247.799 85.219 247.677 84.6643 247.677 84.023V79.798H249.497V83.763C249.497 84.335 249.64 84.777 249.926 85.089C250.212 85.3923 250.602 85.544 251.096 85.544C251.599 85.544 251.993 85.3923 252.279 85.089C252.565 84.777 252.708 84.335 252.708 83.763V79.798H254.541ZM255.869 83.399C255.869 82.6537 256.021 82.0037 256.324 81.449C256.627 80.8857 257.048 80.4523 257.585 80.149C258.122 79.837 258.738 79.681 259.431 79.681C260.324 79.681 261.06 79.9063 261.641 80.357C262.23 80.799 262.625 81.423 262.824 82.229H260.861C260.757 81.917 260.579 81.6743 260.328 81.501C260.085 81.319 259.782 81.228 259.418 81.228C258.898 81.228 258.486 81.4187 258.183 81.8C257.88 82.1727 257.728 82.7057 257.728 83.399C257.728 84.0837 257.88 84.6167 258.183 84.998C258.486 85.3707 258.898 85.557 259.418 85.557C260.155 85.557 260.636 85.2277 260.861 84.569H262.824C262.625 85.349 262.23 85.9687 261.641 86.428C261.052 86.8873 260.315 87.117 259.431 87.117C258.738 87.117 258.122 86.9653 257.585 86.662C257.048 86.35 256.627 85.9167 256.324 85.362C256.021 84.7987 255.869 84.1443 255.869 83.399ZM266.276 81.293V84.777C266.276 85.0197 266.333 85.1973 266.445 85.31C266.567 85.414 266.766 85.466 267.043 85.466H267.888V87H266.744C265.21 87 264.443 86.2547 264.443 84.764V81.293H263.585V79.798H264.443V78.017H266.276V79.798H267.888V81.293H266.276ZM282.188 77.926V87H280.368V81.098L277.937 87H276.559L274.115 81.098V87H272.295V77.926H274.362L277.248 84.673L280.134 77.926H282.188ZM283.519 83.373C283.519 82.645 283.662 81.9993 283.948 81.436C284.243 80.8727 284.637 80.4393 285.131 80.136C285.634 79.8327 286.193 79.681 286.808 79.681C287.346 79.681 287.814 79.7893 288.212 80.006C288.62 80.2227 288.945 80.4957 289.187 80.825V79.798H291.02V87H289.187V85.947C288.953 86.285 288.628 86.5667 288.212 86.792C287.805 87.0087 287.333 87.117 286.795 87.117C286.189 87.117 285.634 86.961 285.131 86.649C284.637 86.337 284.243 85.8993 283.948 85.336C283.662 84.764 283.519 84.1097 283.519 83.373ZM289.187 83.399C289.187 82.957 289.101 82.58 288.927 82.268C288.754 81.9473 288.52 81.7047 288.225 81.54C287.931 81.3667 287.614 81.28 287.276 81.28C286.938 81.28 286.626 81.3623 286.34 81.527C286.054 81.6917 285.82 81.9343 285.638 82.255C285.465 82.567 285.378 82.9397 285.378 83.373C285.378 83.8063 285.465 84.1877 285.638 84.517C285.82 84.8377 286.054 85.0847 286.34 85.258C286.635 85.4313 286.947 85.518 287.276 85.518C287.614 85.518 287.931 85.4357 288.225 85.271C288.52 85.0977 288.754 84.855 288.927 84.543C289.101 84.2223 289.187 83.841 289.187 83.399ZM296.789 79.694C297.647 79.694 298.34 79.967 298.869 80.513C299.398 81.0503 299.662 81.8043 299.662 82.775V87H297.842V83.022C297.842 82.45 297.699 82.0123 297.413 81.709C297.127 81.397 296.737 81.241 296.243 81.241C295.74 81.241 295.342 81.397 295.047 81.709C294.761 82.0123 294.618 82.45 294.618 83.022V87H292.798V79.798H294.618V80.695C294.861 80.383 295.168 80.1403 295.541 79.967C295.922 79.785 296.338 79.694 296.789 79.694ZM300.925 83.373C300.925 82.645 301.068 81.9993 301.354 81.436C301.648 80.8727 302.043 80.4393 302.537 80.136C303.039 79.8327 303.598 79.681 304.214 79.681C304.751 79.681 305.219 79.7893 305.618 80.006C306.025 80.2227 306.35 80.4957 306.593 80.825V79.798H308.426V87H306.593V85.947C306.359 86.285 306.034 86.5667 305.618 86.792C305.21 87.0087 304.738 87.117 304.201 87.117C303.594 87.117 303.039 86.961 302.537 86.649C302.043 86.337 301.648 85.8993 301.354 85.336C301.068 84.764 300.925 84.1097 300.925 83.373ZM306.593 83.399C306.593 82.957 306.506 82.58 306.333 82.268C306.159 81.9473 305.925 81.7047 305.631 81.54C305.336 81.3667 305.02 81.28 304.682 81.28C304.344 81.28 304.032 81.3623 303.746 81.527C303.46 81.6917 303.226 81.9343 303.044 82.255C302.87 82.567 302.784 82.9397 302.784 83.373C302.784 83.8063 302.87 84.1877 303.044 84.517C303.226 84.8377 303.46 85.0847 303.746 85.258C304.04 85.4313 304.352 85.518 304.682 85.518C305.02 85.518 305.336 85.4357 305.631 85.271C305.925 85.0977 306.159 84.855 306.333 84.543C306.506 84.2223 306.593 83.841 306.593 83.399ZM313.024 79.681C313.561 79.681 314.034 79.7893 314.441 80.006C314.848 80.214 315.169 80.487 315.403 80.825V79.798H317.236V87.052C317.236 87.7193 317.102 88.313 316.833 88.833C316.564 89.3617 316.161 89.7777 315.624 90.081C315.087 90.393 314.437 90.549 313.674 90.549C312.651 90.549 311.811 90.3107 311.152 89.834C310.502 89.3573 310.134 88.7073 310.047 87.884H311.854C311.949 88.2133 312.153 88.4733 312.465 88.664C312.786 88.8633 313.171 88.963 313.622 88.963C314.151 88.963 314.58 88.8027 314.909 88.482C315.238 88.17 315.403 87.6933 315.403 87.052V85.934C315.169 86.272 314.844 86.5537 314.428 86.779C314.021 87.0043 313.553 87.117 313.024 87.117C312.417 87.117 311.863 86.961 311.36 86.649C310.857 86.337 310.459 85.8993 310.164 85.336C309.878 84.764 309.735 84.1097 309.735 83.373C309.735 82.645 309.878 81.9993 310.164 81.436C310.459 80.8727 310.853 80.4393 311.347 80.136C311.85 79.8327 312.409 79.681 313.024 79.681ZM315.403 83.399C315.403 82.957 315.316 82.58 315.143 82.268C314.97 81.9473 314.736 81.7047 314.441 81.54C314.146 81.3667 313.83 81.28 313.492 81.28C313.154 81.28 312.842 81.3623 312.556 81.527C312.27 81.6917 312.036 81.9343 311.854 82.255C311.681 82.567 311.594 82.9397 311.594 83.373C311.594 83.8063 311.681 84.1877 311.854 84.517C312.036 84.8377 312.27 85.0847 312.556 85.258C312.851 85.4313 313.163 85.518 313.492 85.518C313.83 85.518 314.146 85.4357 314.441 85.271C314.736 85.0977 314.97 84.855 315.143 84.543C315.316 84.2223 315.403 83.841 315.403 83.399ZM325.709 83.243C325.709 83.503 325.691 83.737 325.657 83.945H320.392C320.435 84.465 320.617 84.8723 320.938 85.167C321.258 85.4617 321.653 85.609 322.121 85.609C322.797 85.609 323.278 85.3187 323.564 84.738H325.527C325.319 85.4313 324.92 86.0033 324.331 86.454C323.741 86.896 323.018 87.117 322.16 87.117C321.466 87.117 320.842 86.9653 320.288 86.662C319.742 86.35 319.313 85.9123 319.001 85.349C318.697 84.7857 318.546 84.1357 318.546 83.399C318.546 82.6537 318.697 81.9993 319.001 81.436C319.304 80.8727 319.729 80.4393 320.275 80.136C320.821 79.8327 321.449 79.681 322.16 79.681C322.844 79.681 323.455 79.8283 323.993 80.123C324.539 80.4177 324.959 80.838 325.254 81.384C325.557 81.9213 325.709 82.541 325.709 83.243ZM323.824 82.723C323.815 82.255 323.646 81.8823 323.317 81.605C322.987 81.319 322.584 81.176 322.108 81.176C321.657 81.176 321.276 81.3147 320.964 81.592C320.66 81.8607 320.474 82.2377 320.405 82.723H323.824ZM335.981 79.694C336.865 79.694 337.576 79.967 338.113 80.513C338.659 81.0503 338.932 81.8043 338.932 82.775V87H337.112V83.022C337.112 82.4587 336.969 82.0297 336.683 81.735C336.397 81.4317 336.007 81.28 335.513 81.28C335.019 81.28 334.625 81.4317 334.33 81.735C334.044 82.0297 333.901 82.4587 333.901 83.022V87H332.081V83.022C332.081 82.4587 331.938 82.0297 331.652 81.735C331.366 81.4317 330.976 81.28 330.482 81.28C329.979 81.28 329.581 81.4317 329.286 81.735C329 82.0297 328.857 82.4587 328.857 83.022V87H327.037V79.798H328.857V80.669C329.091 80.3657 329.39 80.1273 329.754 79.954C330.127 79.7807 330.534 79.694 330.976 79.694C331.539 79.694 332.042 79.8153 332.484 80.058C332.926 80.292 333.268 80.63 333.511 81.072C333.745 80.656 334.083 80.3223 334.525 80.071C334.976 79.8197 335.461 79.694 335.981 79.694ZM347.354 83.243C347.354 83.503 347.337 83.737 347.302 83.945H342.037C342.081 84.465 342.263 84.8723 342.583 85.167C342.904 85.4617 343.298 85.609 343.766 85.609C344.442 85.609 344.923 85.3187 345.209 84.738H347.172C346.964 85.4313 346.566 86.0033 345.976 86.454C345.387 86.896 344.663 87.117 343.805 87.117C343.112 87.117 342.488 86.9653 341.933 86.662C341.387 86.35 340.958 85.9123 340.646 85.349C340.343 84.7857 340.191 84.1357 340.191 83.399C340.191 82.6537 340.343 81.9993 340.646 81.436C340.95 80.8727 341.374 80.4393 341.92 80.136C342.466 79.8327 343.095 79.681 343.805 79.681C344.49 79.681 345.101 79.8283 345.638 80.123C346.184 80.4177 346.605 80.838 346.899 81.384C347.203 81.9213 347.354 82.541 347.354 83.243ZM345.469 82.723C345.461 82.255 345.292 81.8823 344.962 81.605C344.633 81.319 344.23 81.176 343.753 81.176C343.303 81.176 342.921 81.3147 342.609 81.592C342.306 81.8607 342.12 82.2377 342.05 82.723H345.469ZM352.674 79.694C353.532 79.694 354.225 79.967 354.754 80.513C355.282 81.0503 355.547 81.8043 355.547 82.775V87H353.727V83.022C353.727 82.45 353.584 82.0123 353.298 81.709C353.012 81.397 352.622 81.241 352.128 81.241C351.625 81.241 351.226 81.397 350.932 81.709C350.646 82.0123 350.503 82.45 350.503 83.022V87H348.683V79.798H350.503V80.695C350.745 80.383 351.053 80.1403 351.426 79.967C351.807 79.785 352.223 79.694 352.674 79.694ZM359.396 81.293V84.777C359.396 85.0197 359.453 85.1973 359.565 85.31C359.687 85.414 359.886 85.466 360.163 85.466H361.008V87H359.864C358.33 87 357.563 86.2547 357.563 84.764V81.293H356.705V79.798H357.563V78.017H359.396V79.798H361.008V81.293H359.396ZM238.355 97.926L235.027 107H232.817L229.489 97.926H231.439L233.935 105.141L236.418 97.926H238.355ZM240.369 98.94C240.048 98.94 239.779 98.8403 239.563 98.641C239.355 98.433 239.251 98.1773 239.251 97.874C239.251 97.5707 239.355 97.3193 239.563 97.12C239.779 96.912 240.048 96.808 240.369 96.808C240.689 96.808 240.954 96.912 241.162 97.12C241.378 97.3193 241.487 97.5707 241.487 97.874C241.487 98.1773 241.378 98.433 241.162 98.641C240.954 98.8403 240.689 98.94 240.369 98.94ZM241.266 99.798V107H239.446V99.798H241.266ZM244.884 100.916C245.118 100.535 245.421 100.236 245.794 100.019C246.175 99.8023 246.609 99.694 247.094 99.694V101.605H246.613C246.041 101.605 245.608 101.739 245.313 102.008C245.027 102.277 244.884 102.745 244.884 103.412V107H243.064V99.798H244.884V100.916ZM250.439 101.293V104.777C250.439 105.02 250.495 105.197 250.608 105.31C250.729 105.414 250.929 105.466 251.206 105.466H252.051V107H250.907C249.373 107 248.606 106.255 248.606 104.764V101.293H247.748V99.798H248.606V98.017H250.439V99.798H252.051V101.293H250.439ZM260.159 99.798V107H258.326V106.09C258.092 106.402 257.784 106.649 257.403 106.831C257.03 107.004 256.623 107.091 256.181 107.091C255.618 107.091 255.119 106.974 254.686 106.74C254.253 106.497 253.91 106.146 253.659 105.687C253.416 105.219 253.295 104.664 253.295 104.023V99.798H255.115V103.763C255.115 104.335 255.258 104.777 255.544 105.089C255.83 105.392 256.22 105.544 256.714 105.544C257.217 105.544 257.611 105.392 257.897 105.089C258.183 104.777 258.326 104.335 258.326 103.763V99.798H260.159ZM261.487 103.373C261.487 102.645 261.63 101.999 261.916 101.436C262.21 100.873 262.605 100.439 263.099 100.136C263.601 99.8327 264.16 99.681 264.776 99.681C265.313 99.681 265.781 99.7893 266.18 100.006C266.587 100.223 266.912 100.496 267.155 100.825V99.798H268.988V107H267.155V105.947C266.921 106.285 266.596 106.567 266.18 106.792C265.772 107.009 265.3 107.117 264.763 107.117C264.156 107.117 263.601 106.961 263.099 106.649C262.605 106.337 262.21 105.899 261.916 105.336C261.63 104.764 261.487 104.11 261.487 103.373ZM267.155 103.399C267.155 102.957 267.068 102.58 266.895 102.268C266.721 101.947 266.487 101.705 266.193 101.54C265.898 101.367 265.582 101.28 265.244 101.28C264.906 101.28 264.594 101.362 264.308 101.527C264.022 101.692 263.788 101.934 263.606 102.255C263.432 102.567 263.346 102.94 263.346 103.373C263.346 103.806 263.432 104.188 263.606 104.517C263.788 104.838 264.022 105.085 264.308 105.258C264.602 105.431 264.914 105.518 265.244 105.518C265.582 105.518 265.898 105.436 266.193 105.271C266.487 105.098 266.721 104.855 266.895 104.543C267.068 104.222 267.155 103.841 267.155 103.399ZM272.585 97.38V107H270.765V97.38H272.585ZM279.301 99.395V101.67H282.356V103.113H279.301V105.518H282.746V107H277.481V97.913H282.746V99.395H279.301ZM288.378 107L286.896 104.764L285.583 107H283.633L285.986 103.386L283.607 99.798H285.661L287.13 102.021L288.456 99.798H290.406L288.04 103.386L290.432 107H288.378ZM293.24 100.838C293.474 100.509 293.795 100.236 294.202 100.019C294.618 99.7937 295.091 99.681 295.619 99.681C296.235 99.681 296.789 99.8327 297.283 100.136C297.786 100.439 298.18 100.873 298.466 101.436C298.761 101.991 298.908 102.636 298.908 103.373C298.908 104.11 298.761 104.764 298.466 105.336C298.18 105.899 297.786 106.337 297.283 106.649C296.789 106.961 296.235 107.117 295.619 107.117C295.091 107.117 294.623 107.009 294.215 106.792C293.817 106.575 293.492 106.302 293.24 105.973V110.432H291.42V99.798H293.24V100.838ZM297.049 103.373C297.049 102.94 296.958 102.567 296.776 102.255C296.603 101.934 296.369 101.692 296.074 101.527C295.788 101.362 295.476 101.28 295.138 101.28C294.809 101.28 294.497 101.367 294.202 101.54C293.916 101.705 293.682 101.947 293.5 102.268C293.327 102.589 293.24 102.966 293.24 103.399C293.24 103.832 293.327 104.209 293.5 104.53C293.682 104.851 293.916 105.098 294.202 105.271C294.497 105.436 294.809 105.518 295.138 105.518C295.476 105.518 295.788 105.431 296.074 105.258C296.369 105.085 296.603 104.838 296.776 104.517C296.958 104.196 297.049 103.815 297.049 103.373ZM306.926 103.243C306.926 103.503 306.909 103.737 306.874 103.945H301.609C301.652 104.465 301.834 104.872 302.155 105.167C302.476 105.462 302.87 105.609 303.338 105.609C304.014 105.609 304.495 105.319 304.781 104.738H306.744C306.536 105.431 306.137 106.003 305.548 106.454C304.959 106.896 304.235 107.117 303.377 107.117C302.684 107.117 302.06 106.965 301.505 106.662C300.959 106.35 300.53 105.912 300.218 105.349C299.915 104.786 299.763 104.136 299.763 103.399C299.763 102.654 299.915 101.999 300.218 101.436C300.521 100.873 300.946 100.439 301.492 100.136C302.038 99.8327 302.666 99.681 303.377 99.681C304.062 99.681 304.673 99.8283 305.21 100.123C305.756 100.418 306.176 100.838 306.471 101.384C306.774 101.921 306.926 102.541 306.926 103.243ZM305.041 102.723C305.032 102.255 304.863 101.882 304.534 101.605C304.205 101.319 303.802 101.176 303.325 101.176C302.874 101.176 302.493 101.315 302.181 101.592C301.878 101.861 301.691 102.238 301.622 102.723H305.041ZM310.074 100.916C310.308 100.535 310.612 100.236 310.984 100.019C311.366 99.8023 311.799 99.694 312.284 99.694V101.605H311.803C311.231 101.605 310.798 101.739 310.503 102.008C310.217 102.277 310.074 102.745 310.074 103.412V107H308.254V99.798H310.074V100.916ZM314.433 98.94C314.113 98.94 313.844 98.8403 313.627 98.641C313.419 98.433 313.315 98.1773 313.315 97.874C313.315 97.5707 313.419 97.3193 313.627 97.12C313.844 96.912 314.113 96.808 314.433 96.808C314.754 96.808 315.018 96.912 315.226 97.12C315.443 97.3193 315.551 97.5707 315.551 97.874C315.551 98.1773 315.443 98.433 315.226 98.641C315.018 98.8403 314.754 98.94 314.433 98.94ZM315.33 99.798V107H313.51V99.798H315.33ZM323.823 103.243C323.823 103.503 323.806 103.737 323.771 103.945H318.506C318.55 104.465 318.732 104.872 319.052 105.167C319.373 105.462 319.767 105.609 320.235 105.609C320.911 105.609 321.392 105.319 321.678 104.738H323.641C323.433 105.431 323.035 106.003 322.445 106.454C321.856 106.896 321.132 107.117 320.274 107.117C319.581 107.117 318.957 106.965 318.402 106.662C317.856 106.35 317.427 105.912 317.115 105.349C316.812 104.786 316.66 104.136 316.66 103.399C316.66 102.654 316.812 101.999 317.115 101.436C317.419 100.873 317.843 100.439 318.389 100.136C318.935 99.8327 319.564 99.681 320.274 99.681C320.959 99.681 321.57 99.8283 322.107 100.123C322.653 100.418 323.074 100.838 323.368 101.384C323.672 101.921 323.823 102.541 323.823 103.243ZM321.938 102.723C321.93 102.255 321.761 101.882 321.431 101.605C321.102 101.319 320.699 101.176 320.222 101.176C319.772 101.176 319.39 101.315 319.078 101.592C318.775 101.861 318.589 102.238 318.519 102.723H321.938ZM329.143 99.694C330.001 99.694 330.694 99.967 331.223 100.513C331.752 101.05 332.016 101.804 332.016 102.775V107H330.196V103.022C330.196 102.45 330.053 102.012 329.767 101.709C329.481 101.397 329.091 101.241 328.597 101.241C328.094 101.241 327.696 101.397 327.401 101.709C327.115 102.012 326.972 102.45 326.972 103.022V107H325.152V99.798H326.972V100.695C327.215 100.383 327.522 100.14 327.895 99.967C328.276 99.785 328.692 99.694 329.143 99.694ZM333.279 103.399C333.279 102.654 333.43 102.004 333.734 101.449C334.037 100.886 334.457 100.452 334.995 100.149C335.532 99.837 336.147 99.681 336.841 99.681C337.733 99.681 338.47 99.9063 339.051 100.357C339.64 100.799 340.034 101.423 340.234 102.229H338.271C338.167 101.917 337.989 101.674 337.738 101.501C337.495 101.319 337.192 101.228 336.828 101.228C336.308 101.228 335.896 101.419 335.593 101.8C335.289 102.173 335.138 102.706 335.138 103.399C335.138 104.084 335.289 104.617 335.593 104.998C335.896 105.371 336.308 105.557 336.828 105.557C337.564 105.557 338.045 105.228 338.271 104.569H340.234C340.034 105.349 339.64 105.969 339.051 106.428C338.461 106.887 337.725 107.117 336.841 107.117C336.147 107.117 335.532 106.965 334.995 106.662C334.457 106.35 334.037 105.917 333.734 105.362C333.43 104.799 333.279 104.144 333.279 103.399ZM348.262 103.243C348.262 103.503 348.245 103.737 348.21 103.945H342.945C342.988 104.465 343.17 104.872 343.491 105.167C343.812 105.462 344.206 105.609 344.674 105.609C345.35 105.609 345.831 105.319 346.117 104.738H348.08C347.872 105.431 347.473 106.003 346.884 106.454C346.295 106.896 345.571 107.117 344.713 107.117C344.02 107.117 343.396 106.965 342.841 106.662C342.295 106.35 341.866 105.912 341.554 105.349C341.251 104.786 341.099 104.136 341.099 103.399C341.099 102.654 341.251 101.999 341.554 101.436C341.857 100.873 342.282 100.439 342.828 100.136C343.374 99.8327 344.002 99.681 344.713 99.681C345.398 99.681 346.009 99.8283 346.546 100.123C347.092 100.418 347.512 100.838 347.807 101.384C348.11 101.921 348.262 102.541 348.262 103.243ZM346.377 102.723C346.368 102.255 346.199 101.882 345.87 101.605C345.541 101.319 345.138 101.176 344.661 101.176C344.21 101.176 343.829 101.315 343.517 101.592C343.214 101.861 343.027 102.238 342.958 102.723H346.377Z" fill="white"/>
<g filter="url(#filter1_d)">
<circle cx="289" cy="51" r="16" fill="white"/>
<circle cx="289" cy="51" r="15.5" stroke="white"/>
</g>
<path d="M294.837 43.917C296.222 45.7775 297 48.3006 297 50.9313C297 53.5621 296.222 56.0852 294.837 57.9457M282.91 57.9457C281.524 56.0852 280.746 53.5621 280.746 50.9313C280.746 48.3006 281.524 45.7775 282.91 43.917M285.548 45.4749H292.568V48.9474H285.548V45.4749ZM285.548 53.412H292.568V56.8844H285.548V53.412Z" stroke="#8186FF" stroke-width="1.5" stroke-linecap="round" stroke-linejoin="round"/>
<path fill-rule="evenodd" clip-rule="evenodd" d="M171.967 168.467C175.814 168.467 184 165.347 184 161.5C184 157.652 175.814 154.533 171.967 154.533C168.119 154.533 165 157.652 165 161.5C165 165.347 168.119 168.467 171.967 168.467ZM171.967 164.667C173.716 164.667 175.133 163.249 175.133 161.5C175.133 159.751 173.716 158.333 171.967 158.333C170.218 158.333 168.8 159.751 168.8 161.5C168.8 163.249 170.218 164.667 171.967 164.667Z" fill="#8186FF"/>
<path fill-rule="evenodd" clip-rule="evenodd" d="M171.967 447.467C175.814 447.467 184 444.347 184 440.5C184 436.652 175.814 433.533 171.967 433.533C168.119 433.533 165 436.652 165 440.5C165 444.347 168.119 447.467 171.967 447.467ZM171.967 443.667C173.716 443.667 175.133 442.249 175.133 440.5C175.133 438.751 173.716 437.333 171.967 437.333C170.218 437.333 168.8 438.751 168.8 440.5C168.8 442.249 170.218 443.667 171.967 443.667Z" fill="#8186FF"/>
<path d="M205.092 159.252C205.092 159.775 204.966 160.265 204.714 160.722C204.471 161.179 204.084 161.548 203.552 161.828C203.029 162.108 202.367 162.248 201.564 162.248H199.926V166H197.966V156.228H201.564C202.32 156.228 202.964 156.359 203.496 156.62C204.028 156.881 204.425 157.241 204.686 157.698C204.957 158.155 205.092 158.673 205.092 159.252ZM201.48 160.666C202.021 160.666 202.423 160.545 202.684 160.302C202.945 160.05 203.076 159.7 203.076 159.252C203.076 158.3 202.544 157.824 201.48 157.824H199.926V160.666H201.48ZM208.444 159.448C208.696 159.037 209.022 158.715 209.424 158.482C209.834 158.249 210.301 158.132 210.824 158.132V160.19H210.306C209.69 160.19 209.223 160.335 208.906 160.624C208.598 160.913 208.444 161.417 208.444 162.136V166H206.484V158.244H208.444V159.448ZM219.354 161.954C219.354 162.234 219.335 162.486 219.298 162.71H213.628C213.674 163.27 213.87 163.709 214.216 164.026C214.561 164.343 214.986 164.502 215.49 164.502C216.218 164.502 216.736 164.189 217.044 163.564H219.158C218.934 164.311 218.504 164.927 217.87 165.412C217.235 165.888 216.456 166.126 215.532 166.126C214.785 166.126 214.113 165.963 213.516 165.636C212.928 165.3 212.466 164.829 212.13 164.222C211.803 163.615 211.64 162.915 211.64 162.122C211.64 161.319 211.803 160.615 212.13 160.008C212.456 159.401 212.914 158.935 213.502 158.608C214.09 158.281 214.766 158.118 215.532 158.118C216.269 158.118 216.927 158.277 217.506 158.594C218.094 158.911 218.546 159.364 218.864 159.952C219.19 160.531 219.354 161.198 219.354 161.954ZM217.324 161.394C217.314 160.89 217.132 160.489 216.778 160.19C216.423 159.882 215.989 159.728 215.476 159.728C214.99 159.728 214.58 159.877 214.244 160.176C213.917 160.465 213.716 160.871 213.642 161.394H217.324ZM223.644 161.1C223.644 160.139 223.859 159.28 224.288 158.524C224.727 157.759 225.32 157.166 226.066 156.746C226.822 156.317 227.667 156.102 228.6 156.102C229.692 156.102 230.649 156.382 231.47 156.942C232.292 157.502 232.866 158.277 233.192 159.266H230.938C230.714 158.799 230.397 158.449 229.986 158.216C229.585 157.983 229.118 157.866 228.586 157.866C228.017 157.866 227.508 158.001 227.06 158.272C226.622 158.533 226.276 158.907 226.024 159.392C225.782 159.877 225.66 160.447 225.66 161.1C225.66 161.744 225.782 162.313 226.024 162.808C226.276 163.293 226.622 163.671 227.06 163.942C227.508 164.203 228.017 164.334 228.586 164.334C229.118 164.334 229.585 164.217 229.986 163.984C230.397 163.741 230.714 163.387 230.938 162.92H233.192C232.866 163.919 232.292 164.698 231.47 165.258C230.658 165.809 229.702 166.084 228.6 166.084C227.667 166.084 226.822 165.874 226.066 165.454C225.32 165.025 224.727 164.432 224.288 163.676C223.859 162.92 223.644 162.061 223.644 161.1ZM236.826 155.64V166H234.866V155.64H236.826ZM238.259 162.094C238.259 161.31 238.413 160.615 238.721 160.008C239.038 159.401 239.463 158.935 239.995 158.608C240.536 158.281 241.138 158.118 241.801 158.118C242.38 158.118 242.884 158.235 243.313 158.468C243.752 158.701 244.102 158.995 244.363 159.35V158.244H246.337V166H244.363V164.866C244.111 165.23 243.761 165.533 243.313 165.776C242.874 166.009 242.366 166.126 241.787 166.126C241.134 166.126 240.536 165.958 239.995 165.622C239.463 165.286 239.038 164.815 238.721 164.208C238.413 163.592 238.259 162.887 238.259 162.094ZM244.363 162.122C244.363 161.646 244.27 161.24 244.083 160.904C243.896 160.559 243.644 160.297 243.327 160.12C243.01 159.933 242.669 159.84 242.305 159.84C241.941 159.84 241.605 159.929 241.297 160.106C240.989 160.283 240.737 160.545 240.541 160.89C240.354 161.226 240.261 161.627 240.261 162.094C240.261 162.561 240.354 162.971 240.541 163.326C240.737 163.671 240.989 163.937 241.297 164.124C241.614 164.311 241.95 164.404 242.305 164.404C242.669 164.404 243.01 164.315 243.327 164.138C243.644 163.951 243.896 163.69 244.083 163.354C244.27 163.009 244.363 162.598 244.363 162.122ZM251.219 166.126C250.584 166.126 250.015 166.014 249.511 165.79C249.007 165.557 248.606 165.244 248.307 164.852C248.018 164.46 247.859 164.026 247.831 163.55H249.805C249.842 163.849 249.987 164.096 250.239 164.292C250.5 164.488 250.822 164.586 251.205 164.586C251.578 164.586 251.868 164.511 252.073 164.362C252.288 164.213 252.395 164.021 252.395 163.788C252.395 163.536 252.264 163.349 252.003 163.228C251.751 163.097 251.345 162.957 250.785 162.808C250.206 162.668 249.73 162.523 249.357 162.374C248.993 162.225 248.676 161.996 248.405 161.688C248.144 161.38 248.013 160.965 248.013 160.442C248.013 160.013 248.134 159.621 248.377 159.266C248.629 158.911 248.984 158.631 249.441 158.426C249.908 158.221 250.454 158.118 251.079 158.118C252.003 158.118 252.74 158.351 253.291 158.818C253.842 159.275 254.145 159.896 254.201 160.68H252.325C252.297 160.372 252.166 160.129 251.933 159.952C251.709 159.765 251.406 159.672 251.023 159.672C250.668 159.672 250.393 159.737 250.197 159.868C250.01 159.999 249.917 160.181 249.917 160.414C249.917 160.675 250.048 160.876 250.309 161.016C250.57 161.147 250.976 161.282 251.527 161.422C252.087 161.562 252.549 161.707 252.913 161.856C253.277 162.005 253.59 162.239 253.851 162.556C254.122 162.864 254.262 163.275 254.271 163.788C254.271 164.236 254.145 164.637 253.893 164.992C253.65 165.347 253.296 165.627 252.829 165.832C252.372 166.028 251.835 166.126 251.219 166.126ZM258.848 166.126C258.213 166.126 257.644 166.014 257.14 165.79C256.636 165.557 256.235 165.244 255.936 164.852C255.647 164.46 255.488 164.026 255.46 163.55H257.434C257.471 163.849 257.616 164.096 257.868 164.292C258.129 164.488 258.451 164.586 258.834 164.586C259.207 164.586 259.497 164.511 259.702 164.362C259.917 164.213 260.024 164.021 260.024 163.788C260.024 163.536 259.893 163.349 259.632 163.228C259.38 163.097 258.974 162.957 258.414 162.808C257.835 162.668 257.359 162.523 256.986 162.374C256.622 162.225 256.305 161.996 256.034 161.688C255.773 161.38 255.642 160.965 255.642 160.442C255.642 160.013 255.763 159.621 256.006 159.266C256.258 158.911 256.613 158.631 257.07 158.426C257.537 158.221 258.083 158.118 258.708 158.118C259.632 158.118 260.369 158.351 260.92 158.818C261.471 159.275 261.774 159.896 261.83 160.68H259.954C259.926 160.372 259.795 160.129 259.562 159.952C259.338 159.765 259.035 159.672 258.652 159.672C258.297 159.672 258.022 159.737 257.826 159.868C257.639 159.999 257.546 160.181 257.546 160.414C257.546 160.675 257.677 160.876 257.938 161.016C258.199 161.147 258.605 161.282 259.156 161.422C259.716 161.562 260.178 161.707 260.542 161.856C260.906 162.005 261.219 162.239 261.48 162.556C261.751 162.864 261.891 163.275 261.9 163.788C261.9 164.236 261.774 164.637 261.522 164.992C261.279 165.347 260.925 165.627 260.458 165.832C260.001 166.028 259.464 166.126 258.848 166.126ZM264.377 166.098C264.022 166.098 263.728 165.991 263.495 165.776C263.271 165.552 263.159 165.277 263.159 164.95C263.159 164.623 263.271 164.353 263.495 164.138C263.728 163.914 264.022 163.802 264.377 163.802C264.722 163.802 265.007 163.914 265.231 164.138C265.455 164.353 265.567 164.623 265.567 164.95C265.567 165.277 265.455 165.552 265.231 165.776C265.007 165.991 264.722 166.098 264.377 166.098ZM264.377 160.302C264.022 160.302 263.728 160.195 263.495 159.98C263.271 159.756 263.159 159.481 263.159 159.154C263.159 158.827 263.271 158.557 263.495 158.342C263.728 158.118 264.022 158.006 264.377 158.006C264.722 158.006 265.007 158.118 265.231 158.342C265.455 158.557 265.567 158.827 265.567 159.154C265.567 159.481 265.455 159.756 265.231 159.98C265.007 160.195 264.722 160.302 264.377 160.302ZM283.585 156.228L280.855 166H278.545L276.711 159.042L274.793 166L272.497 166.014L269.865 156.228H271.965L273.687 163.816L275.675 156.228H277.859L279.735 163.774L281.471 156.228H283.585ZM289.232 158.132C289.82 158.132 290.343 158.263 290.8 158.524C291.258 158.776 291.612 159.154 291.864 159.658C292.126 160.153 292.256 160.75 292.256 161.45V166H290.296V161.716C290.296 161.1 290.142 160.629 289.834 160.302C289.526 159.966 289.106 159.798 288.574 159.798C288.033 159.798 287.604 159.966 287.286 160.302C286.978 160.629 286.824 161.1 286.824 161.716V166H284.864V155.64H286.824V159.21C287.076 158.874 287.412 158.613 287.832 158.426C288.252 158.23 288.719 158.132 289.232 158.132ZM293.616 162.094C293.616 161.31 293.77 160.615 294.078 160.008C294.396 159.401 294.82 158.935 295.352 158.608C295.894 158.281 296.496 158.118 297.158 158.118C297.737 158.118 298.241 158.235 298.67 158.468C299.109 158.701 299.459 158.995 299.72 159.35V158.244H301.694V166H299.72V164.866C299.468 165.23 299.118 165.533 298.67 165.776C298.232 166.009 297.723 166.126 297.144 166.126C296.491 166.126 295.894 165.958 295.352 165.622C294.82 165.286 294.396 164.815 294.078 164.208C293.77 163.592 293.616 162.887 293.616 162.094ZM299.72 162.122C299.72 161.646 299.627 161.24 299.44 160.904C299.254 160.559 299.002 160.297 298.684 160.12C298.367 159.933 298.026 159.84 297.662 159.84C297.298 159.84 296.962 159.929 296.654 160.106C296.346 160.283 296.094 160.545 295.898 160.89C295.712 161.226 295.618 161.627 295.618 162.094C295.618 162.561 295.712 162.971 295.898 163.326C296.094 163.671 296.346 163.937 296.654 164.124C296.972 164.311 297.308 164.404 297.662 164.404C298.026 164.404 298.367 164.315 298.684 164.138C299.002 163.951 299.254 163.69 299.44 163.354C299.627 163.009 299.72 162.598 299.72 162.122ZM305.891 159.854V163.606C305.891 163.867 305.951 164.059 306.073 164.18C306.203 164.292 306.418 164.348 306.717 164.348H307.627V166H306.395C304.743 166 303.917 165.197 303.917 163.592V159.854H302.993V158.244H303.917V156.326H305.891V158.244H307.627V159.854H305.891ZM313.366 157.32C313.021 157.32 312.732 157.213 312.498 156.998C312.274 156.774 312.162 156.499 312.162 156.172C312.162 155.845 312.274 155.575 312.498 155.36C312.732 155.136 313.021 155.024 313.366 155.024C313.712 155.024 313.996 155.136 314.22 155.36C314.454 155.575 314.57 155.845 314.57 156.172C314.57 156.499 314.454 156.774 314.22 156.998C313.996 157.213 313.712 157.32 313.366 157.32ZM314.332 158.244V166H312.372V158.244H314.332ZM319.237 166.126C318.602 166.126 318.033 166.014 317.529 165.79C317.025 165.557 316.623 165.244 316.325 164.852C316.035 164.46 315.877 164.026 315.849 163.55H317.823C317.86 163.849 318.005 164.096 318.257 164.292C318.518 164.488 318.84 164.586 319.223 164.586C319.596 164.586 319.885 164.511 320.091 164.362C320.305 164.213 320.413 164.021 320.413 163.788C320.413 163.536 320.282 163.349 320.021 163.228C319.769 163.097 319.363 162.957 318.803 162.808C318.224 162.668 317.748 162.523 317.375 162.374C317.011 162.225 316.693 161.996 316.423 161.688C316.161 161.38 316.031 160.965 316.031 160.442C316.031 160.013 316.152 159.621 316.395 159.266C316.647 158.911 317.001 158.631 317.459 158.426C317.925 158.221 318.471 158.118 319.097 158.118C320.021 158.118 320.758 158.351 321.309 158.818C321.859 159.275 322.163 159.896 322.219 160.68H320.343C320.315 160.372 320.184 160.129 319.951 159.952C319.727 159.765 319.423 159.672 319.041 159.672C318.686 159.672 318.411 159.737 318.215 159.868C318.028 159.999 317.935 160.181 317.935 160.414C317.935 160.675 318.065 160.876 318.327 161.016C318.588 161.147 318.994 161.282 319.545 161.422C320.105 161.562 320.567 161.707 320.931 161.856C321.295 162.005 321.607 162.239 321.869 162.556C322.139 162.864 322.279 163.275 322.289 163.788C322.289 164.236 322.163 164.637 321.911 164.992C321.668 165.347 321.313 165.627 320.847 165.832C320.389 166.028 319.853 166.126 319.237 166.126ZM326.73 162.094C326.73 161.31 326.884 160.615 327.192 160.008C327.509 159.401 327.934 158.935 328.466 158.608C329.007 158.281 329.609 158.118 330.272 158.118C330.85 158.118 331.354 158.235 331.784 158.468C332.222 158.701 332.572 158.995 332.834 159.35V158.244H334.808V166H332.834V164.866C332.582 165.23 332.232 165.533 331.784 165.776C331.345 166.009 330.836 166.126 330.258 166.126C329.604 166.126 329.007 165.958 328.466 165.622C327.934 165.286 327.509 164.815 327.192 164.208C326.884 163.592 326.73 162.887 326.73 162.094ZM332.834 162.122C332.834 161.646 332.74 161.24 332.554 160.904C332.367 160.559 332.115 160.297 331.798 160.12C331.48 159.933 331.14 159.84 330.776 159.84C330.412 159.84 330.076 159.929 329.768 160.106C329.46 160.283 329.208 160.545 329.012 160.89C328.825 161.226 328.732 161.627 328.732 162.094C328.732 162.561 328.825 162.971 329.012 163.326C329.208 163.671 329.46 163.937 329.768 164.124C330.085 164.311 330.421 164.404 330.776 164.404C331.14 164.404 331.48 164.315 331.798 164.138C332.115 163.951 332.367 163.69 332.554 163.354C332.74 163.009 332.834 162.598 332.834 162.122ZM347.184 159.252C347.184 159.775 347.058 160.265 346.806 160.722C346.563 161.179 346.176 161.548 345.644 161.828C345.121 162.108 344.458 162.248 343.656 162.248H342.018V166H340.058V156.228H343.656C344.412 156.228 345.056 156.359 345.588 156.62C346.12 156.881 346.516 157.241 346.778 157.698C347.048 158.155 347.184 158.673 347.184 159.252ZM343.572 160.666C344.113 160.666 344.514 160.545 344.776 160.302C345.037 160.05 345.168 159.7 345.168 159.252C345.168 158.3 344.636 157.824 343.572 157.824H342.018V160.666H343.572ZM359.229 156.228V166H357.269V159.644L354.651 166H353.167L350.535 159.644V166H348.575V156.228H350.801L353.909 163.494L357.017 156.228H359.229ZM363.897 155.892C364.868 155.892 365.647 156.158 366.235 156.69C366.833 157.213 367.131 157.936 367.131 158.86C367.131 159.775 366.837 160.475 366.249 160.96C365.661 161.436 364.882 161.674 363.911 161.674L363.855 162.752H362.133L362.063 160.372H362.693C363.505 160.372 364.131 160.265 364.569 160.05C365.008 159.835 365.227 159.443 365.227 158.874C365.227 158.463 365.106 158.137 364.863 157.894C364.63 157.651 364.308 157.53 363.897 157.53C363.468 157.53 363.132 157.647 362.889 157.88C362.656 158.113 362.539 158.435 362.539 158.846H360.691C360.682 158.277 360.803 157.768 361.055 157.32C361.307 156.872 361.676 156.522 362.161 156.27C362.656 156.018 363.235 155.892 363.897 155.892ZM362.987 166.098C362.633 166.098 362.339 165.991 362.105 165.776C361.881 165.552 361.769 165.277 361.769 164.95C361.769 164.623 361.881 164.353 362.105 164.138C362.339 163.914 362.633 163.802 362.987 163.802C363.333 163.802 363.617 163.914 363.841 164.138C364.065 164.353 364.177 164.623 364.177 164.95C364.177 165.277 364.065 165.552 363.841 165.776C363.617 165.991 363.333 166.098 362.987 166.098Z" fill="#0A2540"/>
<path d="M211.028 435.228L208.298 445H205.988L204.154 438.042L202.236 445L199.94 445.014L197.308 435.228H199.408L201.13 442.816L203.118 435.228H205.302L207.178 442.774L208.914 435.228H211.028ZM219.518 440.954C219.518 441.234 219.499 441.486 219.462 441.71H213.792C213.838 442.27 214.034 442.709 214.38 443.026C214.725 443.343 215.15 443.502 215.654 443.502C216.382 443.502 216.9 443.189 217.208 442.564H219.322C219.098 443.311 218.668 443.927 218.034 444.412C217.399 444.888 216.62 445.126 215.696 445.126C214.949 445.126 214.277 444.963 213.68 444.636C213.092 444.3 212.63 443.829 212.294 443.222C211.967 442.615 211.804 441.915 211.804 441.122C211.804 440.319 211.967 439.615 212.294 439.008C212.62 438.401 213.078 437.935 213.666 437.608C214.254 437.281 214.93 437.118 215.696 437.118C216.433 437.118 217.091 437.277 217.67 437.594C218.258 437.911 218.71 438.364 219.028 438.952C219.354 439.531 219.518 440.198 219.518 440.954ZM217.488 440.394C217.478 439.89 217.296 439.489 216.942 439.19C216.587 438.882 216.153 438.728 215.64 438.728C215.154 438.728 214.744 438.877 214.408 439.176C214.081 439.465 213.88 439.871 213.806 440.394H217.488ZM228.158 440.954C228.158 441.234 228.14 441.486 228.102 441.71H222.432C222.479 442.27 222.675 442.709 223.02 443.026C223.366 443.343 223.79 443.502 224.294 443.502C225.022 443.502 225.54 443.189 225.848 442.564H227.962C227.738 443.311 227.309 443.927 226.674 444.412C226.04 444.888 225.26 445.126 224.336 445.126C223.59 445.126 222.918 444.963 222.32 444.636C221.732 444.3 221.27 443.829 220.934 443.222C220.608 442.615 220.444 441.915 220.444 441.122C220.444 440.319 220.608 439.615 220.934 439.008C221.261 438.401 221.718 437.935 222.306 437.608C222.894 437.281 223.571 437.118 224.336 437.118C225.074 437.118 225.732 437.277 226.31 437.594C226.898 437.911 227.351 438.364 227.668 438.952C227.995 439.531 228.158 440.198 228.158 440.954ZM226.128 440.394C226.119 439.89 225.937 439.489 225.582 439.19C225.228 438.882 224.794 438.728 224.28 438.728C223.795 438.728 223.384 438.877 223.048 439.176C222.722 439.465 222.521 439.871 222.446 440.394H226.128ZM234.181 445L231.549 441.696V445H229.589V434.64H231.549V440.534L234.153 437.244H236.701L233.285 441.136L236.729 445H234.181ZM241.493 442.788C242.389 442.041 243.103 441.421 243.635 440.926C244.167 440.422 244.61 439.899 244.965 439.358C245.319 438.817 245.497 438.285 245.497 437.762C245.497 437.286 245.385 436.913 245.161 436.642C244.937 436.371 244.591 436.236 244.125 436.236C243.658 436.236 243.299 436.395 243.047 436.712C242.795 437.02 242.664 437.445 242.655 437.986H240.751C240.788 436.866 241.119 436.017 241.745 435.438C242.379 434.859 243.182 434.57 244.153 434.57C245.217 434.57 246.033 434.855 246.603 435.424C247.172 435.984 247.457 436.726 247.457 437.65C247.457 438.378 247.261 439.073 246.869 439.736C246.477 440.399 246.029 440.977 245.525 441.472C245.021 441.957 244.363 442.545 243.551 443.236H247.681V444.86H240.765V443.404L241.493 442.788ZM250.008 445.098C249.653 445.098 249.359 444.991 249.126 444.776C248.902 444.552 248.79 444.277 248.79 443.95C248.79 443.623 248.902 443.353 249.126 443.138C249.359 442.914 249.653 442.802 250.008 442.802C250.353 442.802 250.638 442.914 250.862 443.138C251.086 443.353 251.198 443.623 251.198 443.95C251.198 444.277 251.086 444.552 250.862 444.776C250.638 444.991 250.353 445.098 250.008 445.098ZM250.008 439.302C249.653 439.302 249.359 439.195 249.126 438.98C248.902 438.756 248.79 438.481 248.79 438.154C248.79 437.827 248.902 437.557 249.126 437.342C249.359 437.118 249.653 437.006 250.008 437.006C250.353 437.006 250.638 437.118 250.862 437.342C251.086 437.557 251.198 437.827 251.198 438.154C251.198 438.481 251.086 438.756 250.862 438.98C250.638 439.195 250.353 439.302 250.008 439.302ZM266.808 435.228V445H264.848V438.644L262.23 445H260.746L258.114 438.644V445H256.154V435.228H258.38L261.488 442.494L264.596 435.228H266.808ZM275.955 440.954C275.955 441.234 275.937 441.486 275.899 441.71H270.229C270.276 442.27 270.472 442.709 270.817 443.026C271.163 443.343 271.587 443.502 272.091 443.502C272.819 443.502 273.337 443.189 273.645 442.564H275.759C275.535 443.311 275.106 443.927 274.471 444.412C273.837 444.888 273.057 445.126 272.133 445.126C271.387 445.126 270.715 444.963 270.117 444.636C269.529 444.3 269.067 443.829 268.731 443.222C268.405 442.615 268.241 441.915 268.241 441.122C268.241 440.319 268.405 439.615 268.731 439.008C269.058 438.401 269.515 437.935 270.103 437.608C270.691 437.281 271.368 437.118 272.133 437.118C272.871 437.118 273.529 437.277 274.107 437.594C274.695 437.911 275.148 438.364 275.465 438.952C275.792 439.531 275.955 440.198 275.955 440.954ZM273.925 440.394C273.916 439.89 273.734 439.489 273.379 439.19C273.025 438.882 272.591 438.728 272.077 438.728C271.592 438.728 271.181 438.877 270.845 439.176C270.519 439.465 270.318 439.871 270.243 440.394H273.925ZM279.668 438.854V442.606C279.668 442.867 279.729 443.059 279.85 443.18C279.981 443.292 280.195 443.348 280.494 443.348H281.404V445H280.172C278.52 445 277.694 444.197 277.694 442.592V438.854H276.77V437.244H277.694V435.326H279.668V437.244H281.404V438.854H279.668ZM284.774 438.448C285.026 438.037 285.352 437.715 285.754 437.482C286.164 437.249 286.631 437.132 287.154 437.132V439.19H286.636C286.02 439.19 285.553 439.335 285.236 439.624C284.928 439.913 284.774 440.417 284.774 441.136V445H282.814V437.244H284.774V438.448ZM289.468 436.32C289.122 436.32 288.833 436.213 288.6 435.998C288.376 435.774 288.264 435.499 288.264 435.172C288.264 434.845 288.376 434.575 288.6 434.36C288.833 434.136 289.122 434.024 289.468 434.024C289.813 434.024 290.098 434.136 290.322 434.36C290.555 434.575 290.672 434.845 290.672 435.172C290.672 435.499 290.555 435.774 290.322 435.998C290.098 436.213 289.813 436.32 289.468 436.32ZM290.434 437.244V445H288.474V437.244H290.434ZM291.866 441.122C291.866 440.319 292.03 439.619 292.356 439.022C292.683 438.415 293.136 437.949 293.714 437.622C294.293 437.286 294.956 437.118 295.702 437.118C296.664 437.118 297.457 437.361 298.082 437.846C298.717 438.322 299.142 438.994 299.356 439.862H297.242C297.13 439.526 296.939 439.265 296.668 439.078C296.407 438.882 296.08 438.784 295.688 438.784C295.128 438.784 294.685 438.989 294.358 439.4C294.032 439.801 293.868 440.375 293.868 441.122C293.868 441.859 294.032 442.433 294.358 442.844C294.685 443.245 295.128 443.446 295.688 443.446C296.482 443.446 297 443.091 297.242 442.382H299.356C299.142 443.222 298.717 443.889 298.082 444.384C297.448 444.879 296.654 445.126 295.702 445.126C294.956 445.126 294.293 444.963 293.714 444.636C293.136 444.3 292.683 443.833 292.356 443.236C292.03 442.629 291.866 441.925 291.866 441.122ZM303.76 445.126C303.126 445.126 302.556 445.014 302.052 444.79C301.548 444.557 301.147 444.244 300.848 443.852C300.559 443.46 300.4 443.026 300.372 442.55H302.346C302.384 442.849 302.528 443.096 302.78 443.292C303.042 443.488 303.364 443.586 303.746 443.586C304.12 443.586 304.409 443.511 304.614 443.362C304.829 443.213 304.936 443.021 304.936 442.788C304.936 442.536 304.806 442.349 304.544 442.228C304.292 442.097 303.886 441.957 303.326 441.808C302.748 441.668 302.272 441.523 301.898 441.374C301.534 441.225 301.217 440.996 300.946 440.688C300.685 440.38 300.554 439.965 300.554 439.442C300.554 439.013 300.676 438.621 300.918 438.266C301.17 437.911 301.525 437.631 301.982 437.426C302.449 437.221 302.995 437.118 303.62 437.118C304.544 437.118 305.282 437.351 305.832 437.818C306.383 438.275 306.686 438.896 306.742 439.68H304.866C304.838 439.372 304.708 439.129 304.474 438.952C304.25 438.765 303.947 438.672 303.564 438.672C303.21 438.672 302.934 438.737 302.738 438.868C302.552 438.999 302.458 439.181 302.458 439.414C302.458 439.675 302.589 439.876 302.85 440.016C303.112 440.147 303.518 440.282 304.068 440.422C304.628 440.562 305.09 440.707 305.454 440.856C305.818 441.005 306.131 441.239 306.392 441.556C306.663 441.864 306.803 442.275 306.812 442.788C306.812 443.236 306.686 443.637 306.434 443.992C306.192 444.347 305.837 444.627 305.37 444.832C304.913 445.028 304.376 445.126 303.76 445.126ZM311.253 441.094C311.253 440.31 311.407 439.615 311.715 439.008C312.032 438.401 312.457 437.935 312.989 437.608C313.53 437.281 314.132 437.118 314.795 437.118C315.374 437.118 315.878 437.235 316.307 437.468C316.746 437.701 317.096 437.995 317.357 438.35V437.244H319.331V445H317.357V443.866C317.105 444.23 316.755 444.533 316.307 444.776C315.868 445.009 315.36 445.126 314.781 445.126C314.128 445.126 313.53 444.958 312.989 444.622C312.457 444.286 312.032 443.815 311.715 443.208C311.407 442.592 311.253 441.887 311.253 441.094ZM317.357 441.122C317.357 440.646 317.264 440.24 317.077 439.904C316.89 439.559 316.638 439.297 316.321 439.12C316.004 438.933 315.663 438.84 315.299 438.84C314.935 438.84 314.599 438.929 314.291 439.106C313.983 439.283 313.731 439.545 313.535 439.89C313.348 440.226 313.255 440.627 313.255 441.094C313.255 441.561 313.348 441.971 313.535 442.326C313.731 442.671 313.983 442.937 314.291 443.124C314.608 443.311 314.944 443.404 315.299 443.404C315.663 443.404 316.004 443.315 316.321 443.138C316.638 442.951 316.89 442.69 317.077 442.354C317.264 442.009 317.357 441.598 317.357 441.122ZM325.543 437.132C326.467 437.132 327.214 437.426 327.783 438.014C328.353 438.593 328.637 439.405 328.637 440.45V445H326.677V440.716C326.677 440.1 326.523 439.629 326.215 439.302C325.907 438.966 325.487 438.798 324.955 438.798C324.414 438.798 323.985 438.966 323.667 439.302C323.359 439.629 323.205 440.1 323.205 440.716V445H321.245V437.244H323.205V438.21C323.467 437.874 323.798 437.613 324.199 437.426C324.61 437.23 325.058 437.132 325.543 437.132ZM329.997 441.094C329.997 440.31 330.151 439.615 330.459 439.008C330.776 438.401 331.206 437.935 331.747 437.608C332.288 437.281 332.89 437.118 333.553 437.118C334.057 437.118 334.538 437.23 334.995 437.454C335.452 437.669 335.816 437.958 336.087 438.322V434.64H338.075V445H336.087V443.852C335.844 444.235 335.504 444.543 335.065 444.776C334.626 445.009 334.118 445.126 333.539 445.126C332.886 445.126 332.288 444.958 331.747 444.622C331.206 444.286 330.776 443.815 330.459 443.208C330.151 442.592 329.997 441.887 329.997 441.094ZM336.101 441.122C336.101 440.646 336.008 440.24 335.821 439.904C335.634 439.559 335.382 439.297 335.065 439.12C334.748 438.933 334.407 438.84 334.043 438.84C333.679 438.84 333.343 438.929 333.035 439.106C332.727 439.283 332.475 439.545 332.279 439.89C332.092 440.226 331.999 440.627 331.999 441.094C331.999 441.561 332.092 441.971 332.279 442.326C332.475 442.671 332.727 442.937 333.035 443.124C333.352 443.311 333.688 443.404 334.043 443.404C334.407 443.404 334.748 443.315 335.065 443.138C335.382 442.951 335.634 442.69 335.821 442.354C336.008 442.009 336.101 441.598 336.101 441.122ZM351.683 445H349.723L345.285 438.294V445H343.325V435.214H345.285L349.723 441.934V435.214H351.683V445ZM360.942 437.244V445H358.968V444.02C358.716 444.356 358.385 444.622 357.974 444.818C357.573 445.005 357.134 445.098 356.658 445.098C356.052 445.098 355.515 444.972 355.048 444.72C354.582 444.459 354.213 444.081 353.942 443.586C353.681 443.082 353.55 442.485 353.55 441.794V437.244H355.51V441.514C355.51 442.13 355.664 442.606 355.972 442.942C356.28 443.269 356.7 443.432 357.232 443.432C357.774 443.432 358.198 443.269 358.506 442.942C358.814 442.606 358.968 442.13 358.968 441.514V437.244H360.942ZM372.508 437.132C373.46 437.132 374.225 437.426 374.804 438.014C375.392 438.593 375.686 439.405 375.686 440.45V445H373.726V440.716C373.726 440.109 373.572 439.647 373.264 439.33C372.956 439.003 372.536 438.84 372.004 438.84C371.472 438.84 371.047 439.003 370.73 439.33C370.422 439.647 370.268 440.109 370.268 440.716V445H368.308V440.716C368.308 440.109 368.154 439.647 367.846 439.33C367.538 439.003 367.118 438.84 366.586 438.84C366.045 438.84 365.615 439.003 365.298 439.33C364.99 439.647 364.836 440.109 364.836 440.716V445H362.876V437.244H364.836V438.182C365.088 437.855 365.41 437.599 365.802 437.412C366.203 437.225 366.642 437.132 367.118 437.132C367.725 437.132 368.266 437.263 368.742 437.524C369.218 437.776 369.587 438.14 369.848 438.616C370.1 438.168 370.464 437.809 370.94 437.538C371.425 437.267 371.948 437.132 372.508 437.132ZM379.506 438.378C379.758 438.005 380.103 437.701 380.542 437.468C380.99 437.235 381.499 437.118 382.068 437.118C382.731 437.118 383.328 437.281 383.86 437.608C384.401 437.935 384.826 438.401 385.134 439.008C385.451 439.605 385.61 440.301 385.61 441.094C385.61 441.887 385.451 442.592 385.134 443.208C384.826 443.815 384.401 444.286 383.86 444.622C383.328 444.958 382.731 445.126 382.068 445.126C381.489 445.126 380.981 445.014 380.542 444.79C380.113 444.557 379.767 444.258 379.506 443.894V445H377.546V434.64H379.506V438.378ZM383.608 441.094C383.608 440.627 383.51 440.226 383.314 439.89C383.127 439.545 382.875 439.283 382.558 439.106C382.25 438.929 381.914 438.84 381.55 438.84C381.195 438.84 380.859 438.933 380.542 439.12C380.234 439.297 379.982 439.559 379.786 439.904C379.599 440.249 379.506 440.655 379.506 441.122C379.506 441.589 379.599 441.995 379.786 442.34C379.982 442.685 380.234 442.951 380.542 443.138C380.859 443.315 381.195 443.404 381.55 443.404C381.914 443.404 382.25 443.311 382.558 443.124C382.875 442.937 383.127 442.671 383.314 442.326C383.51 441.981 383.608 441.57 383.608 441.094ZM394.244 440.954C394.244 441.234 394.226 441.486 394.188 441.71H388.518C388.565 442.27 388.761 442.709 389.106 443.026C389.452 443.343 389.876 443.502 390.38 443.502C391.108 443.502 391.626 443.189 391.934 442.564H394.048C393.824 443.311 393.395 443.927 392.76 444.412C392.126 444.888 391.346 445.126 390.422 445.126C389.676 445.126 389.004 444.963 388.406 444.636C387.818 444.3 387.356 443.829 387.02 443.222C386.694 442.615 386.53 441.915 386.53 441.122C386.53 440.319 386.694 439.615 387.02 439.008C387.347 438.401 387.804 437.935 388.392 437.608C388.98 437.281 389.657 437.118 390.422 437.118C391.16 437.118 391.818 437.277 392.396 437.594C392.984 437.911 393.437 438.364 393.754 438.952C394.081 439.531 394.244 440.198 394.244 440.954ZM392.214 440.394C392.205 439.89 392.023 439.489 391.668 439.19C391.314 438.882 390.88 438.728 390.366 438.728C389.881 438.728 389.47 438.877 389.134 439.176C388.808 439.465 388.607 439.871 388.532 440.394H392.214ZM397.635 438.448C397.887 438.037 398.214 437.715 398.615 437.482C399.026 437.249 399.492 437.132 400.015 437.132V439.19H399.497C398.881 439.19 398.414 439.335 398.097 439.624C397.789 439.913 397.635 440.417 397.635 441.136V445H395.675V437.244H397.635V438.448ZM404.303 445.126C403.668 445.126 403.099 445.014 402.595 444.79C402.091 444.557 401.69 444.244 401.391 443.852C401.102 443.46 400.943 443.026 400.915 442.55H402.889C402.926 442.849 403.071 443.096 403.323 443.292C403.584 443.488 403.906 443.586 404.289 443.586C404.662 443.586 404.952 443.511 405.157 443.362C405.372 443.213 405.479 443.021 405.479 442.788C405.479 442.536 405.348 442.349 405.087 442.228C404.835 442.097 404.429 441.957 403.869 441.808C403.29 441.668 402.814 441.523 402.441 441.374C402.077 441.225 401.76 440.996 401.489 440.688C401.228 440.38 401.097 439.965 401.097 439.442C401.097 439.013 401.218 438.621 401.461 438.266C401.713 437.911 402.068 437.631 402.525 437.426C402.992 437.221 403.538 437.118 404.163 437.118C405.087 437.118 405.824 437.351 406.375 437.818C406.926 438.275 407.229 438.896 407.285 439.68H405.409C405.381 439.372 405.25 439.129 405.017 438.952C404.793 438.765 404.49 438.672 404.107 438.672C403.752 438.672 403.477 438.737 403.281 438.868C403.094 438.999 403.001 439.181 403.001 439.414C403.001 439.675 403.132 439.876 403.393 440.016C403.654 440.147 404.06 440.282 404.611 440.422C405.171 440.562 405.633 440.707 405.997 440.856C406.361 441.005 406.674 441.239 406.935 441.556C407.206 441.864 407.346 442.275 407.355 442.788C407.355 443.236 407.229 443.637 406.977 443.992C406.734 444.347 406.38 444.627 405.913 444.832C405.456 445.028 404.919 445.126 404.303 445.126Z" fill="#0A2540"/>
<rect x="197" y="188" width="212" height="18" rx="9" fill="url(#paint0_linear)"/>
<rect x="197" y="467" width="212" height="18" rx="9" fill="url(#paint1_linear)"/>
<rect x="197" y="222" width="159" height="18" rx="9" fill="url(#paint2_linear)"/>
<rect x="197" y="501" width="159" height="18" rx="9" fill="url(#paint3_linear)"/>
<path d="M172 179V274" stroke="url(#paint4_linear)" stroke-width="2" stroke-linecap="round"/>
<g filter="url(#filter2_d)">
<rect x="94.793" y="227" width="298" height="165" rx="16.5" transform="rotate(5.49254 94.793 227)" fill="white"/>
<rect x="95.2428" y="227.546" width="297" height="164" rx="16" transform="rotate(5.49254 95.2428 227.546)" stroke="white"/>
</g>
<path fill-rule="evenodd" clip-rule="evenodd" d="M124.59 271.992C128.42 272.361 136.867 270.039 137.235 266.209C137.603 262.379 129.754 258.491 125.924 258.123C122.094 257.755 118.691 260.561 118.322 264.391C117.954 268.221 120.76 271.624 124.59 271.992ZM124.954 268.21C126.695 268.377 128.242 267.102 128.409 265.361C128.577 263.62 127.301 262.073 125.56 261.905C123.819 261.738 122.272 263.014 122.105 264.754C121.938 266.495 123.213 268.042 124.954 268.21Z" fill="#8186FF"/>
<path d="M164.689 263.084L161.036 272.55L158.737 272.329L157.577 265.227L155.002 271.969L152.715 271.764L151.032 261.771L153.122 261.972L154.11 269.69L156.815 262.327L158.989 262.536L160.134 270.227L162.584 262.881L164.689 263.084ZM172.592 269.596C172.565 269.875 172.522 270.124 172.463 270.343L166.819 269.801C166.812 270.362 166.965 270.818 167.279 271.167C167.592 271.516 168 271.714 168.501 271.763C169.226 271.832 169.772 271.571 170.138 270.978L172.242 271.18C171.948 271.902 171.462 272.474 170.783 272.896C170.106 273.309 169.307 273.472 168.388 273.383C167.645 273.312 166.991 273.085 166.428 272.702C165.875 272.312 165.46 271.798 165.184 271.162C164.917 270.527 164.821 269.815 164.897 269.025C164.974 268.226 165.204 267.54 165.587 266.968C165.97 266.395 166.47 265.974 167.087 265.705C167.703 265.436 168.392 265.339 169.154 265.412C169.888 265.482 170.528 265.703 171.074 266.075C171.629 266.447 172.036 266.941 172.295 267.556C172.565 268.164 172.664 268.844 172.592 269.596ZM170.624 268.844C170.663 268.342 170.521 267.925 170.196 267.594C169.873 267.253 169.455 267.058 168.944 267.009C168.461 266.963 168.038 267.072 167.675 267.337C167.322 267.594 167.084 267.979 166.959 268.492L170.624 268.844ZM181.192 270.423C181.166 270.702 181.123 270.951 181.064 271.17L175.42 270.628C175.413 271.19 175.566 271.645 175.88 271.994C176.193 272.343 176.601 272.541 177.102 272.59C177.827 272.659 178.373 272.398 178.739 271.805L180.843 272.007C180.549 272.729 180.063 273.301 179.384 273.723C178.707 274.136 177.908 274.299 176.989 274.21C176.245 274.139 175.592 273.912 175.029 273.529C174.476 273.139 174.061 272.625 173.785 271.989C173.517 271.354 173.422 270.642 173.498 269.852C173.575 269.053 173.805 268.367 174.188 267.795C174.571 267.222 175.071 266.801 175.688 266.532C176.304 266.264 176.993 266.166 177.755 266.239C178.489 266.31 179.129 266.53 179.675 266.902C180.229 267.274 180.637 267.768 180.896 268.383C181.166 268.991 181.265 269.671 181.192 270.423ZM179.225 269.671C179.264 269.169 179.122 268.752 178.797 268.421C178.474 268.08 178.056 267.885 177.545 267.836C177.062 267.79 176.639 267.899 176.276 268.164C175.923 268.421 175.685 268.806 175.56 269.319L179.225 269.671ZM186.8 275.027L184.497 271.486L184.18 274.775L182.229 274.588L183.221 264.275L185.172 264.463L184.608 270.33L187.515 267.304L190.051 267.548L186.278 271.095L189.336 275.271L186.8 275.027ZM194.032 267.284L194.205 265.486L197.564 265.809L196.587 275.968L194.58 275.775L195.384 267.414L194.032 267.284ZM199.592 276.356C199.239 276.322 198.956 276.187 198.745 275.951C198.543 275.706 198.458 275.421 198.489 275.096C198.52 274.771 198.658 274.512 198.901 274.32C199.155 274.119 199.458 274.036 199.812 274.07C200.155 274.103 200.428 274.242 200.629 274.486C200.832 274.721 200.917 275.002 200.886 275.327C200.855 275.652 200.717 275.915 200.473 276.117C200.229 276.309 199.935 276.389 199.592 276.356ZM200.147 270.586C199.793 270.552 199.511 270.417 199.299 270.181C199.098 269.937 199.013 269.652 199.044 269.327C199.075 269.002 199.213 268.743 199.456 268.551C199.71 268.35 200.013 268.267 200.366 268.301C200.71 268.334 200.983 268.472 201.184 268.717C201.387 268.952 201.472 269.232 201.441 269.557C201.41 269.882 201.272 270.146 201.027 270.347C200.784 270.54 200.49 270.619 200.147 270.586ZM208.577 267.304L207.998 273.324C207.935 273.984 208.058 274.507 208.368 274.893C208.678 275.27 209.145 275.488 209.767 275.548C210.399 275.609 210.903 275.484 211.28 275.173C211.658 274.853 211.879 274.363 211.942 273.703L212.521 267.683L214.486 267.872L213.908 273.878C213.829 274.705 213.58 275.389 213.162 275.931C212.755 276.463 212.235 276.845 211.604 277.075C210.981 277.305 210.303 277.386 209.569 277.315C208.845 277.245 208.199 277.038 207.632 276.693C207.074 276.348 206.651 275.876 206.362 275.277C206.073 274.668 205.969 273.95 206.048 273.123L206.626 267.116L208.577 267.304ZM218.378 278.19C217.746 278.129 217.19 277.963 216.71 277.692C216.23 277.412 215.861 277.062 215.601 276.643C215.351 276.225 215.234 275.778 215.252 275.302L217.217 275.491C217.225 275.791 217.346 276.051 217.578 276.271C217.819 276.491 218.13 276.619 218.511 276.656C218.883 276.692 219.178 276.645 219.397 276.516C219.625 276.388 219.75 276.208 219.772 275.975C219.796 275.725 219.684 275.526 219.436 275.38C219.197 275.226 218.807 275.048 218.263 274.846C217.701 274.651 217.241 274.461 216.883 274.277C216.535 274.094 216.241 273.836 216.001 273.503C215.771 273.172 215.681 272.746 215.731 272.225C215.772 271.798 215.93 271.419 216.205 271.09C216.49 270.761 216.87 270.516 217.345 270.355C217.829 270.196 218.382 270.146 219.005 270.205C219.925 270.294 220.636 270.597 221.14 271.114C221.644 271.622 221.887 272.269 221.867 273.055L220 272.875C220.002 272.566 219.895 272.312 219.679 272.113C219.474 271.906 219.181 271.784 218.8 271.747C218.447 271.713 218.167 271.752 217.959 271.863C217.761 271.975 217.651 272.147 217.628 272.38C217.603 272.64 217.714 272.852 217.961 273.016C218.209 273.172 218.6 273.345 219.135 273.537C219.679 273.73 220.125 273.918 220.473 274.102C220.821 274.285 221.11 274.547 221.339 274.888C221.579 275.221 221.679 275.643 221.64 276.155C221.597 276.601 221.433 276.988 221.148 277.317C220.873 277.647 220.493 277.892 220.009 278.052C219.535 278.203 218.991 278.249 218.378 278.19ZM230.594 275.173C230.567 275.452 230.524 275.701 230.465 275.921L224.821 275.378C224.814 275.94 224.967 276.395 225.281 276.744C225.594 277.093 226.002 277.292 226.503 277.34C227.228 277.41 227.774 277.148 228.14 276.555L230.244 276.757C229.95 277.479 229.464 278.051 228.785 278.474C228.108 278.887 227.309 279.049 226.39 278.96C225.646 278.889 224.993 278.662 224.43 278.28C223.877 277.889 223.462 277.376 223.186 276.74C222.919 276.104 222.823 275.392 222.899 274.602C222.976 273.803 223.206 273.118 223.589 272.545C223.972 271.972 224.472 271.552 225.089 271.283C225.705 271.014 226.394 270.916 227.156 270.989C227.89 271.06 228.53 271.281 229.076 271.652C229.631 272.024 230.038 272.518 230.297 273.134C230.567 273.741 230.666 274.421 230.594 275.173ZM228.626 274.422C228.665 273.919 228.523 273.502 228.198 273.171C227.875 272.83 227.457 272.636 226.946 272.586C226.463 272.54 226.04 272.649 225.677 272.915C225.324 273.171 225.086 273.556 224.961 274.069L228.626 274.422ZM234.208 273.004C234.499 272.619 234.855 272.33 235.276 272.136C235.708 271.943 236.183 271.871 236.703 271.921L236.506 273.97L235.991 273.92C235.378 273.861 234.899 273.961 234.556 274.218C234.221 274.477 234.02 274.964 233.951 275.679L233.581 279.525L231.63 279.338L232.373 271.617L234.324 271.805L234.208 273.004ZM243.934 280.619C243.256 280.554 242.654 280.379 242.128 280.094C241.612 279.81 241.216 279.434 240.943 278.967C240.669 278.5 240.556 277.969 240.604 277.374L242.694 277.575C242.683 277.977 242.792 278.306 243.021 278.563C243.259 278.82 243.601 278.97 244.047 279.013C244.502 279.057 244.87 278.984 245.15 278.795C245.432 278.597 245.59 278.322 245.624 277.969C245.651 277.681 245.586 277.436 245.427 277.233C245.269 277.03 245.059 276.865 244.8 276.736C244.55 276.6 244.2 276.444 243.748 276.27C243.134 276.023 242.636 275.792 242.253 275.577C241.881 275.354 241.568 275.047 241.315 274.657C241.072 274.259 240.98 273.753 241.039 273.14C241.094 272.564 241.286 272.076 241.616 271.676C241.945 271.277 242.38 270.99 242.922 270.817C243.464 270.635 244.07 270.576 244.739 270.641C245.742 270.737 246.532 271.061 247.107 271.614C247.692 272.158 247.975 272.869 247.956 273.749L245.81 273.542C245.824 273.206 245.706 272.918 245.457 272.679C245.219 272.431 244.881 272.286 244.444 272.244C244.063 272.207 243.747 272.275 243.496 272.448C243.255 272.622 243.116 272.894 243.08 273.266C243.055 273.526 243.118 273.752 243.268 273.945C243.428 274.129 243.629 274.289 243.869 274.425C244.119 274.552 244.47 274.708 244.921 274.892C245.535 275.138 246.033 275.373 246.414 275.598C246.796 275.822 247.113 276.134 247.365 276.533C247.617 276.932 247.714 277.434 247.656 278.038C247.606 278.558 247.425 279.028 247.113 279.448C246.801 279.868 246.371 280.188 245.825 280.407C245.28 280.618 244.65 280.688 243.934 280.619ZM251.937 275.116L251.578 278.851C251.553 279.111 251.595 279.307 251.704 279.44C251.823 279.564 252.032 279.64 252.329 279.669L253.235 279.756L253.077 281.4L251.85 281.282C250.206 281.124 249.461 280.246 249.614 278.648L249.972 274.927L249.052 274.839L249.206 273.236L250.126 273.325L250.31 271.415L252.275 271.604L252.091 273.514L253.819 273.68L253.665 275.282L251.937 275.116ZM257.896 281.99C257.153 281.919 256.5 281.692 255.936 281.309C255.374 280.918 254.95 280.403 254.664 279.766C254.388 279.13 254.287 278.418 254.363 277.628C254.439 276.838 254.678 276.158 255.08 275.587C255.491 275.017 256.014 274.599 256.649 274.332C257.285 274.055 257.975 273.953 258.718 274.024C259.462 274.096 260.119 274.328 260.691 274.72C261.263 275.103 261.693 275.613 261.978 276.25C262.273 276.888 262.383 277.602 262.307 278.392C262.231 279.181 261.983 279.861 261.562 280.43C261.151 281 260.623 281.422 259.978 281.698C259.342 281.965 258.649 282.062 257.896 281.99ZM258.06 280.29C258.413 280.324 258.75 280.272 259.073 280.134C259.406 279.988 259.682 279.752 259.901 279.426C260.12 279.1 260.253 278.691 260.3 278.199C260.371 277.465 260.23 276.884 259.877 276.456C259.534 276.02 259.084 275.775 258.527 275.722C257.97 275.668 257.481 275.823 257.062 276.186C256.653 276.54 256.413 277.084 256.342 277.818C256.272 278.552 256.398 279.136 256.722 279.571C257.056 279.997 257.502 280.236 258.06 280.29ZM265.945 276.055C266.235 275.671 266.591 275.381 267.013 275.187C267.444 274.994 267.92 274.923 268.44 274.973L268.243 277.022L267.727 276.972C267.114 276.913 266.636 277.012 266.292 277.27C265.958 277.529 265.756 278.016 265.688 278.731L265.318 282.577L263.367 282.39L264.109 274.669L266.06 274.857L265.945 276.055ZM270.821 274.386C270.477 274.353 270.2 274.219 269.988 273.983C269.786 273.738 269.701 273.453 269.733 273.128C269.764 272.803 269.901 272.544 270.145 272.352C270.398 272.152 270.697 272.068 271.041 272.101C271.385 272.134 271.657 272.273 271.859 272.517C272.071 272.753 272.161 273.034 272.13 273.359C272.098 273.684 271.956 273.947 271.702 274.148C271.459 274.34 271.165 274.419 270.821 274.386ZM271.694 275.399L270.952 283.119L269.001 282.931L269.743 275.211L271.694 275.399ZM280.444 279.967C280.417 280.246 280.374 280.495 280.316 280.714L274.672 280.171C274.664 280.733 274.818 281.189 275.131 281.538C275.444 281.887 275.852 282.085 276.354 282.133C277.078 282.203 277.624 281.941 277.99 281.348L280.094 281.551C279.8 282.273 279.314 282.845 278.635 283.267C277.958 283.68 277.16 283.842 276.24 283.754C275.497 283.682 274.843 283.456 274.28 283.073C273.727 282.683 273.312 282.169 273.036 281.533C272.769 280.898 272.673 280.186 272.749 279.396C272.826 278.597 273.056 277.911 273.439 277.338C273.822 276.766 274.322 276.345 274.939 276.076C275.555 275.807 276.245 275.709 277.006 275.783C277.74 275.853 278.38 276.074 278.926 276.445C279.481 276.818 279.888 277.312 280.148 277.927C280.417 278.535 280.516 279.214 280.444 279.967ZM278.477 279.215C278.516 278.713 278.373 278.296 278.048 277.964C277.725 277.624 277.308 277.429 276.797 277.38C276.313 277.334 275.89 277.443 275.527 277.708C275.174 277.965 274.936 278.35 274.811 278.863L278.477 279.215ZM284.423 284.541C283.791 284.48 283.235 284.314 282.755 284.043C282.275 283.762 281.906 283.413 281.646 282.994C281.396 282.576 281.279 282.129 281.297 281.652L283.262 281.841C283.27 282.142 283.391 282.402 283.623 282.621C283.864 282.842 284.175 282.97 284.556 283.007C284.928 283.042 285.223 282.996 285.442 282.867C285.67 282.739 285.795 282.558 285.817 282.326C285.841 282.075 285.729 281.877 285.481 281.731C285.242 281.577 284.851 281.399 284.308 281.196C283.746 281.002 283.286 280.812 282.928 280.628C282.58 280.444 282.286 280.186 282.046 279.854C281.816 279.522 281.726 279.096 281.776 278.576C281.817 278.149 281.975 277.77 282.25 277.44C282.535 277.111 282.915 276.867 283.39 276.706C283.874 276.546 284.427 276.496 285.05 276.556C285.97 276.645 286.681 276.947 287.185 277.465C287.689 277.973 287.932 278.619 287.912 279.405L286.045 279.226C286.047 278.916 285.94 278.662 285.724 278.463C285.519 278.256 285.226 278.134 284.845 278.098C284.492 278.064 284.212 278.102 284.004 278.214C283.806 278.326 283.696 278.498 283.673 278.73C283.648 278.991 283.759 279.203 284.006 279.367C284.254 279.522 284.645 279.696 285.18 279.888C285.724 280.081 286.17 280.269 286.518 280.453C286.866 280.636 287.155 280.898 287.384 281.239C287.624 281.572 287.724 281.994 287.685 282.506C287.642 282.952 287.478 283.339 287.193 283.668C286.918 283.998 286.538 284.243 286.054 284.402C285.58 284.554 285.036 284.6 284.423 284.541ZM291.403 283.018L289.396 286.777L288.142 286.657L289.425 282.828L291.403 283.018ZM302.076 284.241L298.202 283.869L297.383 285.66L295.334 285.463L299.769 276.059L302.04 276.277L304.601 286.355L302.539 286.156L302.076 284.241ZM301.697 282.629L300.68 278.425L298.882 282.359L301.697 282.629ZM313.335 280.331C313.152 279.901 312.875 279.56 312.506 279.309C312.136 279.058 311.691 278.907 311.171 278.857C310.595 278.802 310.071 278.882 309.6 279.1C309.129 279.317 308.745 279.655 308.448 280.114C308.15 280.573 307.971 281.118 307.911 281.75C307.848 282.401 307.919 282.979 308.124 283.487C308.337 283.995 308.659 284.401 309.089 284.705C309.52 285.008 310.037 285.189 310.641 285.248C311.384 285.319 312.011 285.182 312.522 284.838C313.035 284.484 313.399 283.961 313.616 283.269L310.271 282.948L310.414 281.456L315.682 281.963L315.519 283.663C315.323 284.329 314.984 284.929 314.502 285.464C314.019 285.999 313.421 286.41 312.709 286.698C312.007 286.978 311.238 287.077 310.402 286.997C309.464 286.906 308.634 286.616 307.912 286.124C307.201 285.625 306.663 284.978 306.298 284.183C305.943 283.389 305.812 282.514 305.904 281.557C305.996 280.6 306.292 279.766 306.792 279.055C307.301 278.335 307.953 277.802 308.746 277.456C309.548 277.102 310.414 276.97 311.343 277.059C312.44 277.165 313.366 277.526 314.123 278.142C314.88 278.749 315.365 279.551 315.579 280.547L313.335 280.331ZM319.492 277.969L318.557 287.696L316.606 287.509L317.541 277.782L319.492 277.969ZM322.584 286.523L325.789 286.831L325.64 288.378L320.484 287.882L321.419 278.155L323.37 278.342L322.584 286.523ZM329.615 280.532L329.381 282.971L332.656 283.286L332.507 284.833L329.232 284.518L328.984 287.096L332.677 287.451L332.524 289.04L326.88 288.497L327.817 278.756L333.461 279.298L333.308 280.887L329.615 280.532ZM336.627 287.367L334.619 291.126L333.365 291.005L334.648 287.176L336.627 287.367ZM148.614 288.528C148.689 287.748 148.908 287.07 149.273 286.496C149.647 285.922 150.114 285.498 150.675 285.224C151.245 284.951 151.86 284.846 152.52 284.909C153.096 284.965 153.586 285.129 153.991 285.402C154.406 285.677 154.726 286.003 154.952 286.381L155.058 285.28L157.023 285.469L156.281 293.189L154.316 293L154.424 291.871C154.139 292.21 153.761 292.478 153.292 292.677C152.833 292.867 152.315 292.935 151.739 292.879C151.089 292.817 150.511 292.592 150.004 292.206C149.506 291.821 149.129 291.311 148.871 290.676C148.623 290.034 148.538 289.318 148.614 288.528ZM154.687 289.14C154.732 288.666 154.678 288.253 154.525 287.901C154.372 287.539 154.146 287.255 153.847 287.048C153.549 286.832 153.219 286.706 152.857 286.672C152.494 286.637 152.151 286.693 151.828 286.84C151.504 286.987 151.228 287.223 151 287.548C150.782 287.865 150.651 288.255 150.606 288.72C150.562 289.184 150.615 289.602 150.767 289.973C150.929 290.335 151.155 290.624 151.443 290.839C151.741 291.056 152.067 291.181 152.42 291.215C152.782 291.249 153.13 291.194 153.463 291.048C153.796 290.892 154.072 290.656 154.29 290.34C154.509 290.014 154.641 289.614 154.687 289.14ZM163.217 285.952C164.137 286.04 164.852 286.405 165.363 287.044C165.874 287.675 166.08 288.51 165.98 289.551L165.544 294.08L163.593 293.892L164.003 289.628C164.062 289.015 163.954 288.531 163.679 288.176C163.404 287.812 163.002 287.605 162.473 287.554C161.934 287.502 161.49 287.628 161.142 287.932C160.805 288.228 160.606 288.683 160.547 289.296L160.137 293.56L158.186 293.372L158.928 285.652L160.879 285.84L160.787 286.801C161.079 286.492 161.434 286.263 161.851 286.116C162.279 285.96 162.734 285.906 163.217 285.952ZM167.272 290.322C167.347 289.542 167.567 288.864 167.931 288.29C168.305 287.716 168.777 287.293 169.347 287.02C169.917 286.746 170.532 286.641 171.192 286.705C171.694 286.753 172.161 286.91 172.595 287.177C173.03 287.435 173.364 287.757 173.599 288.146L173.951 284.481L175.93 284.671L174.939 294.983L172.96 294.793L173.07 293.65C172.792 294.008 172.423 294.282 171.964 294.472C171.505 294.663 170.987 294.73 170.411 294.675C169.761 294.612 169.183 294.388 168.676 294.001C168.169 293.615 167.787 293.105 167.529 292.471C167.282 291.828 167.196 291.112 167.272 290.322ZM173.345 290.934C173.39 290.46 173.336 290.047 173.183 289.695C173.03 289.333 172.804 289.049 172.505 288.842C172.207 288.626 171.877 288.501 171.515 288.466C171.152 288.431 170.81 288.487 170.486 288.634C170.162 288.781 169.887 289.017 169.658 289.342C169.44 289.659 169.309 290.049 169.264 290.514C169.22 290.978 169.273 291.396 169.425 291.767C169.587 292.129 169.813 292.418 170.101 292.634C170.399 292.85 170.725 292.975 171.078 293.009C171.44 293.044 171.788 292.988 172.121 292.842C172.454 292.686 172.73 292.45 172.948 292.134C173.167 291.808 173.299 291.408 173.345 290.934ZM190.506 288.576C191.453 288.667 192.187 289.033 192.707 289.674C193.237 290.306 193.452 291.142 193.351 292.183L192.916 296.712L190.965 296.524L191.375 292.26C191.433 291.656 191.324 291.182 191.048 290.836C190.772 290.482 190.37 290.279 189.84 290.228C189.311 290.177 188.873 290.299 188.525 290.594C188.188 290.88 187.991 291.325 187.933 291.929L187.523 296.193L185.572 296.006L185.982 291.741C186.04 291.138 185.931 290.663 185.655 290.318C185.379 289.963 184.977 289.76 184.447 289.709C183.909 289.657 183.466 289.779 183.118 290.074C182.781 290.36 182.584 290.805 182.526 291.409L182.116 295.673L180.165 295.486L180.907 287.765L182.858 287.953L182.768 288.887C183.05 288.586 183.396 288.361 183.804 288.213C184.221 288.065 184.667 288.014 185.14 288.06C185.744 288.118 186.271 288.3 186.719 288.606C187.169 288.902 187.501 289.3 187.716 289.799C188.01 289.377 188.406 289.054 188.906 288.83C189.415 288.607 189.948 288.522 190.506 288.576ZM198.183 297.345C197.44 297.274 196.787 297.047 196.224 296.664C195.661 296.273 195.237 295.758 194.951 295.122C194.675 294.485 194.575 293.773 194.651 292.983C194.727 292.193 194.966 291.513 195.367 290.942C195.779 290.372 196.302 289.954 196.937 289.687C197.573 289.41 198.262 289.308 199.006 289.379C199.749 289.451 200.406 289.683 200.978 290.075C201.551 290.458 201.98 290.969 202.266 291.605C202.561 292.243 202.67 292.957 202.594 293.747C202.518 294.536 202.27 295.216 201.85 295.785C201.439 296.355 200.91 296.777 200.265 297.053C199.63 297.32 198.936 297.417 198.183 297.345ZM198.347 295.645C198.7 295.679 199.038 295.627 199.361 295.489C199.693 295.343 199.969 295.107 200.188 294.781C200.407 294.455 200.54 294.046 200.587 293.554C200.658 292.82 200.517 292.239 200.164 291.811C199.822 291.375 199.372 291.13 198.814 291.077C198.257 291.023 197.769 291.178 197.349 291.541C196.94 291.895 196.7 292.439 196.63 293.173C196.559 293.907 196.686 294.491 197.01 294.926C197.344 295.352 197.79 295.591 198.347 295.645ZM206.232 291.41C206.522 291.026 206.878 290.736 207.3 290.542C207.731 290.35 208.207 290.278 208.727 290.328L208.53 292.377L208.015 292.327C207.401 292.268 206.923 292.367 206.58 292.625C206.245 292.884 206.044 293.371 205.975 294.086L205.605 297.932L203.654 297.745L204.396 290.024L206.347 290.212L206.232 291.41ZM216.852 294.949C216.826 295.228 216.783 295.477 216.724 295.696L211.08 295.153C211.073 295.715 211.226 296.171 211.54 296.52C211.853 296.869 212.261 297.067 212.762 297.115C213.487 297.185 214.032 296.924 214.399 296.331L216.503 296.533C216.209 297.255 215.722 297.827 215.044 298.249C214.367 298.662 213.568 298.824 212.649 298.736C211.905 298.665 211.252 298.438 210.689 298.055C210.136 297.665 209.721 297.151 209.445 296.515C209.177 295.88 209.082 295.168 209.158 294.378C209.235 293.579 209.465 292.893 209.848 292.32C210.231 291.748 210.731 291.327 211.348 291.058C211.964 290.789 212.653 290.692 213.415 290.765C214.149 290.835 214.789 291.056 215.335 291.428C215.889 291.8 216.297 292.294 216.556 292.909C216.826 293.517 216.925 294.196 216.852 294.949ZM214.885 294.197C214.924 293.695 214.782 293.278 214.457 292.947C214.134 292.606 213.716 292.411 213.205 292.362C212.722 292.316 212.299 292.425 211.936 292.69C211.583 292.947 211.345 293.332 211.22 293.845L214.885 294.197Z" fill="#0A2540"/>
<rect x="145.674" y="314.271" width="212" height="18" rx="9" transform="rotate(5.49254 145.674 314.271)" fill="url(#paint5_linear)"/>
<rect x="142.419" y="348.115" width="159" height="18" rx="9" transform="rotate(5.49254 142.419 348.115)" fill="url(#paint6_linear)"/>
<path d="M123.66 282.016L115.141 370.607" stroke="url(#paint7_linear)" stroke-width="2" stroke-linecap="round"/>
<defs>
<filter id="filter0_d" x="70" y="27" width="438" height="597" filterUnits="userSpaceOnUse" color-interpolation-filters="sRGB">
<feFlood flood-opacity="0" result="BackgroundImageFix"/>
<feColorMatrix in="SourceAlpha" type="matrix" values="0 0 0 0 0 0 0 0 0 0 0 0 0 0 0 0 0 0 127 0"/>
<feOffset dy="5"/>
<feGaussianBlur stdDeviation="35"/>
<feColorMatrix type="matrix" values="0 0 0 0 0.109804 0 0 0 0 0.109804 0 0 0 0 0.14902 0 0 0 0.1 0"/>
<feBlend mode="normal" in2="BackgroundImageFix" result="effect1_dropShadow"/>
<feBlend mode="normal" in="SourceGraphic" in2="effect1_dropShadow" result="shape"/>
</filter>
<filter id="filter1_d" x="243" y="0" width="92" height="92" filterUnits="userSpaceOnUse" color-interpolation-filters="sRGB">
<feFlood flood-opacity="0" result="BackgroundImageFix"/>
<feColorMatrix in="SourceAlpha" type="matrix" values="0 0 0 0 0 0 0 0 0 0 0 0 0 0 0 0 0 0 127 0"/>
<feOffset dy="-5"/>
<feGaussianBlur stdDeviation="15"/>
<feColorMatrix type="matrix" values="0 0 0 0 0.109804 0 0 0 0 0.109804 0 0 0 0 0.14902 0 0 0 0.16 0"/>
<feBlend mode="normal" in2="BackgroundImageFix" result="effect1_dropShadow"/>
<feBlend mode="normal" in="SourceGraphic" in2="effect1_dropShadow" result="shape"/>
</filter>
<filter id="filter2_d" x="0.501953" y="148.502" width="479.42" height="359.761" filterUnits="userSpaceOnUse" color-interpolation-filters="sRGB">
<feFlood flood-opacity="0" result="BackgroundImageFix"/>
<feColorMatrix in="SourceAlpha" type="matrix" values="0 0 0 0 0 0 0 0 0 0 0 0 0 0 0 0 0 0 127 0"/>
<feOffset dx="5" dy="5"/>
<feGaussianBlur stdDeviation="42.5"/>
<feColorMatrix type="matrix" values="0 0 0 0 0.109804 0 0 0 0 0.109804 0 0 0 0 0.14902 0 0 0 0.1 0"/>
<feBlend mode="normal" in2="BackgroundImageFix" result="effect1_dropShadow"/>
<feBlend mode="normal" in="SourceGraphic" in2="effect1_dropShadow" result="shape"/>
</filter>
<linearGradient id="paint0_linear" x1="189" y1="192.5" x2="433.124" y2="203.172" gradientUnits="userSpaceOnUse">
<stop stop-color="#ECEDFE"/>
<stop offset="1" stop-color="#ECEDFE" stop-opacity="0"/>
</linearGradient>
<linearGradient id="paint1_linear" x1="189" y1="471.5" x2="433.124" y2="482.172" gradientUnits="userSpaceOnUse">
<stop stop-color="#ECEDFE"/>
<stop offset="1" stop-color="#ECEDFE" stop-opacity="0"/>
</linearGradient>
<linearGradient id="paint2_linear" x1="191" y1="226.5" x2="374.246" y2="232.508" gradientUnits="userSpaceOnUse">
<stop stop-color="#ECEDFE"/>
<stop offset="1" stop-color="#ECEDFE" stop-opacity="0"/>
</linearGradient>
<linearGradient id="paint3_linear" x1="191" y1="505.5" x2="374.246" y2="511.508" gradientUnits="userSpaceOnUse">
<stop stop-color="#ECEDFE"/>
<stop offset="1" stop-color="#ECEDFE" stop-opacity="0"/>
</linearGradient>
<linearGradient id="paint4_linear" x1="172.5" y1="179" x2="172.5" y2="300" gradientUnits="userSpaceOnUse">
<stop stop-color="#C7C9F7"/>
<stop offset="1" stop-color="#C7C9F7" stop-opacity="0"/>
</linearGradient>
<linearGradient id="paint5_linear" x1="137.674" y1="318.771" x2="381.797" y2="329.444" gradientUnits="userSpaceOnUse">
<stop stop-color="#ECEDFE"/>
<stop offset="1" stop-color="#ECEDFE" stop-opacity="0"/>
</linearGradient>
<linearGradient id="paint6_linear" x1="136.419" y1="352.615" x2="319.665" y2="358.623" gradientUnits="userSpaceOnUse">
<stop stop-color="#ECEDFE"/>
<stop offset="1" stop-color="#ECEDFE" stop-opacity="0"/>
</linearGradient>
<linearGradient id="paint7_linear" x1="124.158" y1="282.063" x2="113.308" y2="394.901" gradientUnits="userSpaceOnUse">
<stop stop-color="#C7C9F7"/>
<stop offset="1" stop-color="#C7C9F7" stop-opacity="0"/>
</linearGradient>
</defs>
</svg>
