<svg width="191" height="39" viewBox="0 0 191 39" fill="none" xmlns="http://www.w3.org/2000/svg">
<path d="M46.1462 30V9.903H59.7182V13.702H50.6702V17.646H58.7032V21.358H50.6702V26.201H60.3852V30H46.1462ZM62.9431 15.268C63.6778 15.0553 64.6251 14.862 65.7851 14.688C66.9451 14.4947 68.1631 14.398 69.4391 14.398C70.7344 14.398 71.8074 14.572 72.6581 14.92C73.5281 15.2487 74.2144 15.7223 74.7171 16.341C75.2198 16.9597 75.5774 17.6943 75.7901 18.545C76.0028 19.3957 76.1091 20.343 76.1091 21.387V30H71.7881V21.909C71.7881 20.517 71.6044 19.531 71.2371 18.951C70.8698 18.371 70.1834 18.081 69.1781 18.081C68.8688 18.081 68.5401 18.1003 68.1921 18.139C67.8441 18.1583 67.5348 18.1873 67.2641 18.226V30H62.9431V15.268ZM79.3752 10.947L83.6962 10.251V14.746H88.8872V18.342H83.6962V23.707C83.6962 24.6157 83.8509 25.3407 84.1602 25.882C84.4889 26.4233 85.1366 26.694 86.1032 26.694C86.5672 26.694 87.0409 26.6553 87.5242 26.578C88.0269 26.4813 88.4812 26.3557 88.8872 26.201L89.4962 29.565C88.9742 29.7777 88.3942 29.9613 87.7562 30.116C87.1182 30.2707 86.3352 30.348 85.4072 30.348C84.2279 30.348 83.2516 30.1933 82.4782 29.884C81.7049 29.5553 81.0862 29.1107 80.6222 28.55C80.1582 27.97 79.8296 27.274 79.6362 26.462C79.4622 25.65 79.3752 24.751 79.3752 23.765V10.947ZM101.099 18.574C100.712 18.4773 100.258 18.3807 99.736 18.284C99.214 18.168 98.6533 18.11 98.054 18.11C97.7833 18.11 97.4546 18.139 97.068 18.197C96.7006 18.2357 96.4203 18.284 96.227 18.342V30H91.906V15.558C92.6793 15.2873 93.588 15.036 94.632 14.804C95.6953 14.5527 96.8746 14.427 98.17 14.427C98.402 14.427 98.6823 14.4463 99.011 14.485C99.3396 14.5043 99.6683 14.543 99.997 14.601C100.326 14.6397 100.654 14.6977 100.983 14.775C101.312 14.833 101.592 14.9103 101.824 15.007L101.099 18.574ZM118.09 14.746C117.22 17.6847 116.311 20.4397 115.364 23.011C114.416 25.5823 113.382 28.0763 112.261 30.493C111.855 31.363 111.449 32.0977 111.043 32.697C110.637 33.3157 110.192 33.8183 109.709 34.205C109.225 34.611 108.674 34.901 108.056 35.075C107.456 35.2683 106.751 35.365 105.939 35.365C105.262 35.365 104.634 35.2973 104.054 35.162C103.493 35.046 103.029 34.9107 102.662 34.756L103.416 31.305C103.86 31.4597 104.257 31.566 104.605 31.624C104.953 31.682 105.32 31.711 105.707 31.711C106.48 31.711 107.07 31.4983 107.476 31.073C107.901 30.667 108.259 30.0967 108.549 29.362C107.563 27.4287 106.577 25.2633 105.591 22.866C104.605 20.4493 103.677 17.7427 102.807 14.746H107.389C107.582 15.5 107.804 16.3217 108.056 17.211C108.326 18.081 108.607 18.9703 108.897 19.879C109.187 20.7683 109.477 21.6383 109.767 22.489C110.076 23.3397 110.366 24.113 110.637 24.809C110.888 24.113 111.149 23.3397 111.42 22.489C111.69 21.6383 111.951 20.7683 112.203 19.879C112.473 18.9703 112.725 18.081 112.957 17.211C113.208 16.3217 113.43 15.5 113.624 14.746H118.09ZM133.623 26.114V30H120.196V9.903H124.72V26.114H133.623ZM135.022 22.489C135.022 21.1357 135.225 19.9563 135.631 18.951C136.056 17.9263 136.607 17.0757 137.284 16.399C137.96 15.7223 138.734 15.21 139.604 14.862C140.493 14.514 141.402 14.34 142.33 14.34C144.495 14.34 146.206 15.007 147.463 16.341C148.719 17.6557 149.348 19.5987 149.348 22.17C149.348 22.4213 149.338 22.7017 149.319 23.011C149.299 23.301 149.28 23.562 149.261 23.794H139.459C139.555 24.6833 139.971 25.389 140.706 25.911C141.44 26.433 142.426 26.694 143.664 26.694C144.456 26.694 145.23 26.6263 145.984 26.491C146.757 26.3363 147.385 26.1527 147.869 25.94L148.449 29.449C148.217 29.565 147.907 29.681 147.521 29.797C147.134 29.913 146.699 30.0097 146.216 30.087C145.752 30.1837 145.249 30.261 144.708 30.319C144.166 30.377 143.625 30.406 143.084 30.406C141.711 30.406 140.512 30.203 139.488 29.797C138.482 29.391 137.641 28.84 136.965 28.144C136.307 27.4287 135.814 26.5877 135.486 25.621C135.176 24.6543 135.022 23.6103 135.022 22.489ZM145.172 20.836C145.152 20.4687 145.085 20.111 144.969 19.763C144.872 19.415 144.708 19.1057 144.476 18.835C144.263 18.5643 143.983 18.342 143.635 18.168C143.306 17.994 142.89 17.907 142.388 17.907C141.904 17.907 141.489 17.994 141.141 18.168C140.793 18.3227 140.503 18.5353 140.271 18.806C140.039 19.0767 139.855 19.3957 139.72 19.763C139.604 20.111 139.517 20.4687 139.459 20.836H145.172ZM156.329 30C155.343 28.0667 154.338 25.8047 153.313 23.214C152.308 20.6233 151.351 17.8007 150.442 14.746H155.024C155.218 15.5 155.44 16.3217 155.691 17.211C155.962 18.081 156.233 18.9703 156.503 19.879C156.793 20.7683 157.074 21.6383 157.344 22.489C157.634 23.3397 157.915 24.113 158.185 24.809C158.437 24.113 158.707 23.3397 158.997 22.489C159.287 21.6383 159.568 20.7683 159.838 19.879C160.128 18.9703 160.399 18.081 160.65 17.211C160.921 16.3217 161.153 15.5 161.346 14.746H165.812C164.904 17.8007 163.937 20.6233 162.912 23.214C161.907 25.8047 160.911 28.0667 159.925 30H156.329ZM166.505 22.489C166.505 21.1357 166.708 19.9563 167.114 18.951C167.54 17.9263 168.091 17.0757 168.767 16.399C169.444 15.7223 170.217 15.21 171.087 14.862C171.977 14.514 172.885 14.34 173.813 14.34C175.979 14.34 177.69 15.007 178.946 16.341C180.203 17.6557 180.831 19.5987 180.831 22.17C180.831 22.4213 180.822 22.7017 180.802 23.011C180.783 23.301 180.764 23.562 180.744 23.794H170.942C171.039 24.6833 171.455 25.389 172.189 25.911C172.924 26.433 173.91 26.694 175.147 26.694C175.94 26.694 176.713 26.6263 177.467 26.491C178.241 26.3363 178.869 26.1527 179.352 25.94L179.932 29.449C179.7 29.565 179.391 29.681 179.004 29.797C178.618 29.913 178.183 30.0097 177.699 30.087C177.235 30.1837 176.733 30.261 176.191 30.319C175.65 30.377 175.109 30.406 174.567 30.406C173.195 30.406 171.996 30.203 170.971 29.797C169.966 29.391 169.125 28.84 168.448 28.144C167.791 27.4287 167.298 26.5877 166.969 25.621C166.66 24.6543 166.505 23.6103 166.505 22.489ZM176.655 20.836C176.636 20.4687 176.568 20.111 176.452 19.763C176.356 19.415 176.191 19.1057 175.959 18.835C175.747 18.5643 175.466 18.342 175.118 18.168C174.79 17.994 174.374 17.907 173.871 17.907C173.388 17.907 172.972 17.994 172.624 18.168C172.276 18.3227 171.986 18.5353 171.754 18.806C171.522 19.0767 171.339 19.3957 171.203 19.763C171.087 20.111 171 20.4687 170.942 20.836H176.655ZM189.756 30.29C188.499 30.2707 187.474 30.1353 186.682 29.884C185.908 29.6327 185.29 29.2847 184.826 28.84C184.381 28.376 184.072 27.825 183.898 27.187C183.743 26.5297 183.666 25.795 183.666 24.983V8.192L187.987 7.496V24.113C187.987 24.4997 188.016 24.8477 188.074 25.157C188.132 25.4663 188.238 25.7273 188.393 25.94C188.567 26.1527 188.808 26.3267 189.118 26.462C189.427 26.5973 189.843 26.6843 190.365 26.723L189.756 30.29Z" fill="#110D1A"/>
<path d="M3.5 20.8976C1.567 17.5496 2.71413 13.2684 6.06218 11.3354L19.5622 34.7181C16.2141 36.6511 11.933 35.504 10 32.156L3.5 20.8976Z" fill="#8186FF"/>
<path fill-rule="evenodd" clip-rule="evenodd" d="M31.8269 20.3003L31.8269 28.0393L19.4911 35.1614C16.2855 37.0122 12.1865 35.9139 10.3357 32.7083L31.8269 20.3003ZM28.8292 10.0841L31.8269 11.8148L31.8269 15.8987L8.53804 29.5944L5.18695 23.7902L28.8292 10.0841ZM18.5798 4.16658L25.282 8.03608L3.38844 20.6763C1.53769 17.4707 2.63601 13.3717 5.84161 11.521L18.5798 4.16658Z" fill="#110D1A"/>
</svg>
